<?xml version="1.0" encoding="UTF-8" standalone="no"?>
<!-- Created with Inkscape (http://www.inkscape.org/) -->

<svg
   xmlns:dc="http://purl.org/dc/elements/1.1/"
   xmlns:cc="http://creativecommons.org/ns#"
   xmlns:rdf="http://www.w3.org/1999/02/22-rdf-syntax-ns#"
   xmlns:svg="http://www.w3.org/2000/svg"
   xmlns="http://www.w3.org/2000/svg"
   xmlns:xlink="http://www.w3.org/1999/xlink"
   xmlns:sodipodi="http://sodipodi.sourceforge.net/DTD/sodipodi-0.dtd"
   xmlns:inkscape="http://www.inkscape.org/namespaces/inkscape"
   width="640"
   height="340"
   viewBox="0 0 169.33333 89.958336"
   version="1.1"
   id="svg8"
   inkscape:version="0.92.2 5c3e80d, 2017-08-06"
   sodipodi:docname="antu-icons-gtk.svg">
  <defs
     id="defs2">
    <linearGradient
       gradientUnits="userSpaceOnUse"
       x2="-170.39"
       x1="-226.75"
       id="5">
      <stop
         id="stop891"
         stop-color="#de4000" />
      <stop
         id="stop893"
         stop-color="#fab600"
         offset="1" />
    </linearGradient>
    <linearGradient
       gradientUnits="userSpaceOnUse"
       y2="82.480003"
       x2="-268.98999"
       y1="120.49"
       x1="-335.91"
       id="4">
      <stop
         id="stop896"
         stop-color="#ec3a00" />
      <stop
         id="stop898"
         stop-opacity=".016"
         stop-color="#ffb900"
         offset="1" />
    </linearGradient>
    <linearGradient
       gradientTransform="matrix(1,0,0,1.0085,2.747,1.166)"
       gradientUnits="userSpaceOnUse"
       y2="241.35001"
       x2="-132.2"
       y1="196.2"
       x1="-262.73999"
       id="6">
      <stop
         id="stop901"
         stop-color="#f24d00" />
      <stop
         id="stop903"
         stop-color="#ffb000"
         offset="1" />
    </linearGradient>
    <linearGradient
       y2="24.896"
       x2="263.67999"
       y1="521.29999"
       x1="276.07001"
       gradientUnits="userSpaceOnUse"
       id="3">
      <stop
         id="stop906"
         stop-color="#fc5500" />
      <stop
         id="stop908"
         stop-color="#ffc200"
         offset="1" />
    </linearGradient>
    <linearGradient
       y2="494.01999"
       x2="0"
       y1="537.65002"
       gradientUnits="userSpaceOnUse"
       id="1">
      <stop
         id="stop911"
         stop-color="#178aff" />
      <stop
         id="stop913"
         stop-color="#1bbded"
         offset="1" />
    </linearGradient>
    <linearGradient
       y2="526.20001"
       x2="0"
       y1="542.20001"
       gradientUnits="userSpaceOnUse"
       id="0">
      <stop
         id="stop916"
         stop-color="#d0d0d0" />
      <stop
         id="stop918"
         stop-color="#f1eeee"
         offset="1" />
    </linearGradient>
    <linearGradient
       y2="513.03003"
       x2="396.04999"
       y1="539.09003"
       x1="395.92999"
       gradientUnits="userSpaceOnUse"
       id="2">
      <stop
         id="stop921"
         stop-color="#5043e2" />
      <stop
         id="stop923"
         stop-color="#418dff"
         offset="1" />
    </linearGradient>
    <linearGradient
       id="0-8"
       y1="542.79999"
       x2="0"
       y2="507.79999"
       gradientUnits="userSpaceOnUse"
       gradientTransform="matrix(0.63636,0,0,0.62142,-252.21,-311.09)">
      <stop
         id="stop979"
         stop-color="#c52828" />
      <stop
         id="stop981"
         stop-color="#ff5454"
         offset="1" />
    </linearGradient>
    <linearGradient
       id="0-85"
       y1="542.79999"
       x2="0"
       y2="507.79999"
       gradientUnits="userSpaceOnUse"
       gradientTransform="matrix(0.63636,0,0,0.62142,-252.21,-311.09)">
      <stop
         id="stop1010"
         stop-color="#252525" />
      <stop
         id="stop1012"
         stop-color="#4c4c4c"
         offset="1" />
    </linearGradient>
    <linearGradient
       id="0-7"
       x1="423.60999"
       y1="578.01001"
       x2="422.88"
       y2="530.41998"
       gradientUnits="userSpaceOnUse">
      <stop
         id="stop1097"
         stop-color="#1f2121" />
      <stop
         id="stop1099"
         stop-color="#404447"
         offset="1" />
    </linearGradient>
    <linearGradient
       y2="503.04999"
       x2="0"
       y1="543.04999"
       gradientUnits="userSpaceOnUse"
       id="1-9">
      <stop
         id="stop1102"
         stop-color="#d8d8d8" />
      <stop
         id="stop1104"
         stop-color="#fff"
         offset="1" />
    </linearGradient>
    <linearGradient
       y2="-35.259998"
       x2="52.52"
       y1="12.279"
       x1="52.23"
       gradientUnits="userSpaceOnUse"
       id="0-5">
      <stop
         id="stop1139"
         stop-color="#14a102" />
      <stop
         id="stop1141"
         stop-color="#80e950"
         offset="1" />
    </linearGradient>
    <linearGradient
       id="0-3">
      <stop
         id="stop1164"
         stop-color="#124da4" />
      <stop
         id="stop1166"
         stop-color="#2896ff"
         offset="1" />
    </linearGradient>
    <linearGradient
       gradientUnits="userSpaceOnUse"
       y2="473.20001"
       x2="317.98001"
       y1="569.02002"
       x1="317.89999"
       id="1-8"
       xlink:href="#0-3" />
    <linearGradient
       gradientUnits="userSpaceOnUse"
       y2="473.57999"
       x2="204.7"
       y1="573.23999"
       x1="205.03"
       id="2-5"
       xlink:href="#0-3" />
    <linearGradient
       gradientTransform="matrix(0.26231,0,0,0.26156,-44.879,141.03)"
       id="3-4"
       y1="473.94"
       x2="0"
       y2="253.92999"
       gradientUnits="userSpaceOnUse">
      <stop
         id="stop1217"
         stop-color="#cdd7dc" />
      <stop
         id="stop1219"
         stop-color="#ecf0f3"
         offset="1" />
    </linearGradient>
    <linearGradient
       gradientTransform="matrix(0.41708,-3e-4,3.2e-4,0.39759,13.04,-59.63)"
       y2="148.12"
       x2="21.17"
       y1="267"
       x1="22.548"
       gradientUnits="userSpaceOnUse"
       id="2-6">
      <stop
         id="stop1222"
         stop-color="#f16419" />
      <stop
         id="stop1224"
         stop-color="#feb600"
         offset="1" />
    </linearGradient>
    <linearGradient
       gradientUnits="userSpaceOnUse"
       y2="332.47"
       x2="359.04001"
       y1="400.94"
       x1="363.38"
       id="0-36">
      <stop
         id="stop1227"
         stop-color="#d73b00" />
      <stop
         id="stop1229"
         stop-color="#e05800"
         offset="1" />
    </linearGradient>
    <linearGradient
       y2="147.64"
       x2="3.4189999"
       y1="204.55"
       x1="0.96700001"
       gradientUnits="userSpaceOnUse"
       id="1-3"
       gradientTransform="matrix(1.0015,4e-5,4e-5,0.95188,0.292,11.945)">
      <stop
         id="stop1232"
         stop-color="#f15400" />
      <stop
         id="stop1234"
         stop-color="#fa8c00"
         offset="1" />
    </linearGradient>
    <linearGradient
       gradientUnits="userSpaceOnUse"
       y2="1.316"
       x2="-141.42999"
       y1="47.535"
       x1="-140.87"
       id="0-0">
      <stop
         id="stop1287"
         stop-color="#dce2ff" />
      <stop
         id="stop1289"
         stop-color="#f8feff"
         offset="1" />
    </linearGradient>
    <linearGradient
       y2="-0.74699998"
       x2="10.11"
       y1="50.598999"
       x1="10.366"
       gradientUnits="userSpaceOnUse"
       id="1-2">
      <stop
         id="stop1292"
         stop-color="#5dae33" />
      <stop
         id="stop1294"
         stop-color="#9be058"
         offset="1" />
    </linearGradient>
    <linearGradient
       y2="1.0779999"
       x2="0"
       y1="18.757999"
       gradientUnits="userSpaceOnUse"
       id="2-4">
      <stop
         id="stop1297"
         stop-color="#84cd4a" />
      <stop
         id="stop1299"
         stop-color="#99de57"
         offset="1" />
    </linearGradient>
    <linearGradient
       gradientUnits="userSpaceOnUse"
       y2="1.316"
       x2="92.68"
       y1="47.535"
       x1="93.25"
       id="0-33">
      <stop
         id="stop1334"
         stop-color="#dce2ff" />
      <stop
         id="stop1336"
         stop-color="#f8feff"
         offset="1" />
    </linearGradient>
    <linearGradient
       y2="-0.74699998"
       x2="10.11"
       y1="50.598999"
       x1="10.366"
       gradientUnits="userSpaceOnUse"
       id="1-85">
      <stop
         id="stop1339"
         stop-color="#1e56e6" />
      <stop
         id="stop1341"
         stop-color="#1f9aed"
         offset="1" />
    </linearGradient>
    <linearGradient
       y2="1.0779999"
       x2="0"
       y1="18.757999"
       gradientUnits="userSpaceOnUse"
       id="2-1">
      <stop
         id="stop1344"
         stop-color="#1f81ea" />
      <stop
         id="stop1346"
         stop-color="#1f98ed"
         offset="1" />
    </linearGradient>
    <linearGradient
       id="3-0"
       y1="544.15002"
       x2="0"
       y2="543.09003"
       gradientUnits="userSpaceOnUse"
       gradientTransform="matrix(0.84891,0,0,1.67969,-409.61,-905.25)">
      <stop
         id="stop1384"
         stop-color="#1e56e6" />
      <stop
         id="stop1386"
         stop-color="#1f9aed"
         offset="1" />
    </linearGradient>
    <linearGradient
       id="2-41"
       y1="9.8240004"
       x2="0"
       y2="6.2589998"
       gradientUnits="userSpaceOnUse">
      <stop
         id="stop1389"
         stop-color="#040404" />
      <stop
         id="stop1391"
         stop-opacity=".908"
         stop-color="#121212"
         offset="1" />
    </linearGradient>
    <linearGradient
       id="0-1"
       x1="-28.386999"
       y1="2.947"
       x2="-28.18"
       y2="-34.576"
       gradientUnits="userSpaceOnUse">
      <stop
         id="stop1394"
         stop-color="#b6b9bf" />
      <stop
         id="stop1396"
         stop-color="#dddfe2"
         offset="1" />
    </linearGradient>
    <linearGradient
       id="1-35"
       gradientUnits="userSpaceOnUse"
       x1="10.09"
       x2="122.72"
       gradientTransform="matrix(0.41726,0,0,0.41031,-55.34,-36.651)">
      <stop
         id="stop1399"
         stop-color="#1a1a1a" />
      <stop
         id="stop1401"
         stop-color="#2c2c2e"
         offset=".111" />
      <stop
         id="stop1403"
         stop-color="#2b2b2d"
         offset=".29" />
      <stop
         id="stop1405"
         stop-color="#2a2b2d"
         offset=".512" />
      <stop
         id="stop1407"
         stop-color="#2b2b2d"
         offset=".752" />
      <stop
         id="stop1409"
         stop-color="#323232"
         offset=".897" />
      <stop
         id="stop1411"
         stop-color="#171717"
         offset="1" />
    </linearGradient>
    <linearGradient
       gradientUnits="userSpaceOnUse"
       y2="531.90002"
       x2="347.89001"
       y1="557.79999"
       x1="350.48001"
       id="4-5">
      <stop
         id="stop1466"
         stop-color="#eb4646" />
      <stop
         id="stop1468"
         stop-color="#ff8651"
         offset="1" />
    </linearGradient>
    <linearGradient
       gradientUnits="userSpaceOnUse"
       y2="510.53"
       x2="347.89001"
       y1="536.42999"
       x1="350.48001"
       id="5-9">
      <stop
         id="stop1471"
         stop-color="#ffbc00" />
      <stop
         id="stop1473"
         stop-color="#ffec00"
         offset="1" />
    </linearGradient>
    <linearGradient
       gradientUnits="userSpaceOnUse"
       y2="523.72998"
       x2="358.85999"
       y1="544.45001"
       x1="360.94"
       id="3-9">
      <stop
         id="stop1476"
         stop-color="#dce2ff" />
      <stop
         id="stop1478"
         stop-color="#f8feff"
         offset="1" />
    </linearGradient>
    <linearGradient
       gradientUnits="userSpaceOnUse"
       y2="510.53"
       x2="369.98999"
       y1="536.42999"
       x1="372.57999"
       id="1-0">
      <stop
         id="stop1481"
         stop-color="#4fd127" />
      <stop
         id="stop1483"
         stop-color="#c6f61a"
         offset="1" />
    </linearGradient>
    <linearGradient
       gradientUnits="userSpaceOnUse"
       y2="531.90002"
       x2="369.98999"
       y1="557.79999"
       x1="372.57999"
       id="0-76">
      <stop
         id="stop1486"
         stop-color="#0976da" />
      <stop
         id="stop1488"
         stop-color="#5de5f0"
         offset="1" />
    </linearGradient>
    <linearGradient
       gradientUnits="userSpaceOnUse"
       y2="529.40002"
       x2="0"
       y1="539.40002"
       id="2-3">
      <stop
         id="stop1491"
         stop-color="#161719" />
      <stop
         id="stop1493"
         stop-color="#424649"
         offset="1" />
    </linearGradient>
    <linearGradient
       inkscape:collect="always"
       xlink:href="#0-36"
       id="linearGradient1543"
       gradientUnits="userSpaceOnUse"
       x1="363.38"
       y1="400.94"
       x2="359.04001"
       y2="332.47" />
    <linearGradient
       inkscape:collect="always"
       xlink:href="#0-36"
       id="linearGradient1545"
       gradientUnits="userSpaceOnUse"
       x1="363.38"
       y1="400.94"
       x2="359.04001"
       y2="332.47" />
    <linearGradient
       inkscape:collect="always"
       xlink:href="#1-9"
       id="linearGradient1547"
       gradientUnits="userSpaceOnUse"
       y1="543.04999"
       x2="0"
       y2="503.04999" />
    <linearGradient
       inkscape:collect="always"
       xlink:href="#1-9"
       id="linearGradient1549"
       gradientUnits="userSpaceOnUse"
       y1="543.04999"
       x2="0"
       y2="503.04999" />
    <linearGradient
       inkscape:collect="always"
       xlink:href="#1-9"
       id="linearGradient1551"
       gradientUnits="userSpaceOnUse"
       y1="543.04999"
       x2="0"
       y2="503.04999" />
    <linearGradient
       inkscape:collect="always"
       xlink:href="#1-9"
       id="linearGradient1553"
       gradientUnits="userSpaceOnUse"
       y1="543.04999"
       x2="0"
       y2="503.04999" />
    <linearGradient
       inkscape:collect="always"
       xlink:href="#1"
       id="linearGradient1555"
       gradientUnits="userSpaceOnUse"
       y1="537.65002"
       x2="0"
       y2="494.01999" />
    <linearGradient
       inkscape:collect="always"
       xlink:href="#1"
       id="linearGradient1557"
       gradientUnits="userSpaceOnUse"
       y1="537.65002"
       x2="0"
       y2="494.01999" />
    <linearGradient
       gradientUnits="userSpaceOnUse"
       y2="545.15002"
       x2="0"
       y1="518.08002"
       id="0-08">
      <stop
         id="stop1559"
         stop-color="#db50c8" />
      <stop
         id="stop1561"
         stop-color="#981fe7"
         offset="1" />
    </linearGradient>
    <linearGradient
       gradientUnits="userSpaceOnUse"
       y2="518.08002"
       x2="402.47"
       y1="545.15002"
       x1="403.44"
       id="1-38">
      <stop
         id="stop1564"
         stop-color="#981fe7" />
      <stop
         id="stop1566"
         stop-color="#db50c8"
         offset="1" />
    </linearGradient>
    <linearGradient
       gradientUnits="userSpaceOnUse"
       y2="1.104"
       x2="16.811001"
       y1="29.791"
       x1="18.246"
       id="2-7">
      <stop
         id="stop1569"
         stop-color="#d3d3d3" />
      <stop
         id="stop1571"
         stop-color="#fcf9f9"
         offset="1" />
    </linearGradient>
    <linearGradient
       gradientUnits="userSpaceOnUse"
       y2="502.98001"
       x2="0"
       y1="544.22998"
       id="0-31">
      <stop
         id="stop1600"
         stop-color="#0bac83" />
      <stop
         id="stop1602"
         stop-color="#10da96"
         offset="1" />
    </linearGradient>
    <linearGradient
       gradientTransform="translate(386.57143,499.798)"
       gradientUnits="userSpaceOnUse"
       y2="3.9746101"
       x2="20.87496"
       y1="43.896484"
       x1="19.929688"
       id="linearGradient4309"
       xlink:href="#linearGradient4422"
       inkscape:collect="always" />
    <linearGradient
       inkscape:collect="always"
       id="linearGradient4903">
      <stop
         style="stop-color:#e8ebec;stop-opacity:1"
         offset="0"
         id="stop4905" />
      <stop
         style="stop-color:#fdfeff;stop-opacity:1"
         offset="1"
         id="stop4907" />
    </linearGradient>
    <linearGradient
       id="linearGradient4303"
       inkscape:collect="always">
      <stop
         id="stop4305"
         offset="0"
         style="stop-color:#197cf1;stop-opacity:1" />
      <stop
         id="stop4307"
         offset="1"
         style="stop-color:#21c9fb;stop-opacity:1" />
    </linearGradient>
    <linearGradient
       gradientTransform="translate(-825.14288,-1055.5959)"
       gradientUnits="userSpaceOnUse"
       y2="531.96692"
       x2="411.53482"
       y1="523.85205"
       x1="411.54837"
       id="linearGradient4498"
       xlink:href="#linearGradient4303"
       inkscape:collect="always" />
    <linearGradient
       gradientTransform="translate(2)"
       gradientUnits="userSpaceOnUse"
       y2="517.87592"
       x2="411.70349"
       y1="537.25555"
       x1="411.49097"
       id="linearGradient4506"
       xlink:href="#linearGradient4903"
       inkscape:collect="always" />
    <linearGradient
       id="linearGradient4422">
      <stop
         style="stop-color:#f15f19;stop-opacity:1"
         offset="0"
         id="stop4424" />
      <stop
         style="stop-color:#fbb521;stop-opacity:1"
         offset="1"
         id="stop4426" />
    </linearGradient>
  </defs>
  <sodipodi:namedview
     id="base"
     pagecolor="#ffffff"
     bordercolor="#666666"
     borderopacity="1.0"
     inkscape:pageopacity="0.0"
     inkscape:pageshadow="2"
     inkscape:zoom="0.98994949"
     inkscape:cx="329.36789"
     inkscape:cy="67.407494"
     inkscape:document-units="mm"
     inkscape:current-layer="layer1"
     showgrid="false"
     units="px"
     inkscape:window-width="2560"
     inkscape:window-height="1364"
     inkscape:window-x="1920"
     inkscape:window-y="0"
     inkscape:window-maximized="1" />
  <metadata
     id="metadata5">
    <rdf:RDF>
      <cc:Work
         rdf:about="">
        <dc:format>image/svg+xml</dc:format>
        <dc:type
           rdf:resource="http://purl.org/dc/dcmitype/StillImage" />
        <dc:title></dc:title>
      </cc:Work>
    </rdf:RDF>
  </metadata>
  <g
     inkscape:label="Layer 1"
     inkscape:groupmode="layer"
     id="layer1"
     transform="translate(0,-207.04164)">
    <g
       style="isolation:isolate"
       id="g863"
       transform="matrix(0.41917895,0,0,0.41917895,-415.44738,101.4472)">
      <g
         id="sublime-text-logo">
        <linearGradient
           y2="461.17471"
           x2="1018.175"
           y1="415.56339"
           x1="1017.9538"
           id="_lgradient_3"
           gradientTransform="scale(0.99998985,1.0000102)"
           gradientUnits="userSpaceOnUse">
          <stop
             id="stop815"
             style="stop-color:rgb(69,73,77)"
             stop-opacity="1"
             offset="1.7391304347826086%" />
          <stop
             id="stop817"
             style="stop-color:rgb(23,24,25)"
             stop-opacity="1"
             offset="100%" />
        </linearGradient>
        <path
           id="path820"
           d="m 995.144,435.392 c 1.437,-13.166 13.295,-22.689 26.461,-21.251 13.167,1.438 22.689,13.295 21.251,26.462 -1.437,13.166 -13.295,22.689 -26.461,21.251 -13.167,-1.438 -22.689,-13.295 -21.251,-26.462 z"
           inkscape:connector-curvature="0"
           style="fill:url(#_lgradient_3)" />
        <g
           id="Group">
          <linearGradient
             y2="541.10522"
             x2="834.02698"
             y1="547.91882"
             x1="832.66895"
             id="_lgradient_4"
             gradientTransform="scale(1.2249677,0.81634805)"
             gradientUnits="userSpaceOnUse">
            <stop
               id="stop822"
               style="stop-color:rgb(255,151,0)"
               stop-opacity="1"
               offset="0%" />
            <stop
               id="stop824"
               style="stop-color:rgb(244,142,0)"
               stop-opacity="1"
               offset="53%" />
            <stop
               id="stop826"
               style="stop-color:rgb(206,110,0)"
               stop-opacity="1"
               offset="100%" />
          </linearGradient>
          <path
             id="path829"
             d="m 1028.712,438.692 c 0,-0.295 -0.219,-0.466 -0.487,-0.381 l -18.453,5.851 c -0.269,0.086 -0.487,0.395 -0.487,0.69 v 5.98 c 0,0.296 0.218,0.467 0.487,0.382 l 18.453,-5.851 c 0.268,-0.085 0.487,-0.394 0.487,-0.69 z"
             inkscape:connector-curvature="0"
             style="fill:url(#_lgradient_4);fill-rule:evenodd" />
          <linearGradient
             y2="445.86087"
             x2="1008.4377"
             y1="428.39261"
             x1="1013.4299"
             id="_lgradient_5"
             gradientTransform="scale(1.0095105,0.99057906)"
             gradientUnits="userSpaceOnUse">
            <stop
               id="stop831"
               style="stop-color:rgb(255,181,69)"
               stop-opacity="1"
               offset="0%" />
            <stop
               id="stop833"
               style="stop-color:rgb(255,152,0)"
               stop-opacity="1"
               offset="100%" />
          </linearGradient>
          <path
             id="path836"
             d="m 1020.47,435.533 7.758,2.459 c 0.269,0.086 0.487,0.395 0.487,0.69 v 5.981 c 0,0.295 -0.218,0.466 -0.487,0.381 l -18.456,-5.852 c -0.182,-0.058 -0.341,-0.218 -0.421,-0.412 -0.043,-0.059 -0.066,-0.141 -0.066,-0.237 v -0.041 -5.939 -0.041 c 0,-0.096 0.023,-0.178 0.066,-0.236 0.08,-0.195 0.239,-0.355 0.421,-0.413 l 18.453,-5.851 c 0.268,-0.085 0.487,0.086 0.487,0.381 v 5.981 c 0,0.295 -0.219,0.604 -0.487,0.69 z"
             inkscape:connector-curvature="0"
             style="fill:url(#_lgradient_5)" />
        </g>
      </g>
    </g>
    <g
       style="isolation:isolate"
       id="g889"
       transform="matrix(0.41917895,0,0,0.41917895,-315.55246,101.02803)">
      <g
         id="visual-studio-code">
        <linearGradient
           y2="461.20859"
           x2="863.20856"
           y1="417.49774"
           x1="862.99664"
           id="_lgradient_0"
           gradientTransform="scale(0.99998941,1.0000106)"
           gradientUnits="userSpaceOnUse">
          <stop
             id="stop865"
             style="stop-color:rgb(59,175,255)"
             stop-opacity="1"
             offset="0%" />
          <stop
             id="stop867"
             style="stop-color:rgb(0,107,180)"
             stop-opacity="1"
             offset="100%" />
        </linearGradient>
        <path
           id="path870"
           d="m 841.138,436.501 c 1.378,-12.618 12.741,-21.744 25.359,-20.366 12.618,1.378 21.743,12.741 20.365,25.359 -1.378,12.618 -12.741,21.744 -25.359,20.366 -12.618,-1.378 -21.743,-12.741 -20.365,-25.359 z"
           inkscape:connector-curvature="0"
           style="fill:url(#_lgradient_0)" />
        <path
           id="path872"
           d="m 869.807,426.636 -9.717,9.739 -6.219,-4.821 -2.474,1.23 v 12.303 l 2.474,1.231 6.216,-4.822 9.72,9.743 6.193,-2.519 v -0.003 -19.559 -0.003 z m 0.078,7.263 v 10.074 l -6.496,-5.037 z m -16.055,1.323 3.703,3.714 -3.703,3.713 z"
           inkscape:connector-curvature="0"
           style="fill:#ffffff;fill-opacity:0.93000034" />
      </g>
    </g>
    <g
       id="g942"
       transform="matrix(0.05412019,0,0,0.05412019,20.715006,207.54781)"
       style="fill:url(#linearGradient1557)">
      <circle
         id="circle928"
         transform="matrix(13.0743,0,0,13.0743,-5346.94,-6674.14)"
         cy="526.60999"
         cx="396.62"
         r="13.408"
         style="fill:url(#2)" />
      <path
         id="path930"
         transform="matrix(8.69668,0,0,8.69668,-3070.7,-4327.53)"
         d="m 334.58,501.66 c -2.546,0 -4.969,0.486 -7.209,1.338 -0.163,0.15 -0.375,0.265 -0.542,0.25 -0.023,-0.002 -0.046,-0.017 -0.069,-0.026 -1.104,0.462 -2.151,1.028 -3.144,1.67 0.129,0.209 0.167,0.443 -0.099,0.556 -0.045,0.019 -0.606,0.076 -0.802,0.071 -2.824,2.052 -5.089,4.811 -6.536,8.03 0.023,-0.003 0.043,-0.014 0.067,-0.016 0.22,-0.003 0.536,0.06 0.747,0.104 0.195,0.04 0.352,0.171 0.52,0.183 0.478,0.036 0.593,-0.336 0.984,-0.544 0.403,0.057 0.671,-0.068 1.035,-0.028 0.248,0.028 0.427,0.293 0.621,0.308 0.163,0.016 0.306,-0.152 0.463,-0.128 0.153,0.024 0.417,0.357 0.442,0.544 0.032,0.233 -0.171,0.442 -0.104,0.698 0.244,0.248 0.687,0.299 1.035,0.442 0.227,-0.187 0.03,-0.534 0,-0.804 -0.003,-0.119 0.016,-0.225 0,-0.335 -0.021,-0.186 -0.101,-0.357 -0.103,-0.516 -0.003,-0.736 0.594,-1.081 1.088,-1.372 0.214,-0.127 0.382,-0.349 0.568,-0.442 0.262,-0.131 0.457,-0.162 0.674,-0.284 0.392,-0.22 0.728,-0.397 1.035,-0.647 0.142,-0.334 0.014,-0.782 0.026,-1.112 0.142,-0.087 0.264,0.038 0.414,0.026 0.237,-0.049 0.256,-0.383 0.39,-0.516 0.078,-0.077 0.291,-0.131 0.388,-0.207 0.236,-0.185 0.312,-0.464 0.518,-0.544 0.074,-0.03 0.244,-0.022 0.361,-0.053 0.153,-0.041 0.371,-0.222 0.621,-0.308 0.163,-0.057 0.535,-0.068 0.597,-0.13 0.077,-0.078 -10e-5,-0.297 0.026,-0.414 0.125,-0.584 1.01,-0.708 1.526,-0.905 0.365,-0.138 0.739,-0.391 1.139,-0.313 -0.079,0.278 -0.452,0.179 -0.388,0.516 0.087,0.468 0.714,-0.134 0.879,-0.203 0.316,-0.133 0.857,-0.214 1.271,-0.365 0.363,-0.133 1.015,-0.335 0.672,-0.751 -0.286,-0.016 -0.423,0.335 -0.672,0.442 -0.172,0.028 -0.139,-0.144 -0.286,-0.158 -0.139,-0.016 -0.217,0.129 -0.361,0.104 -0.142,-0.024 -0.342,-0.247 -0.365,-0.414 -0.057,-0.432 0.365,-0.61 0.544,-0.932 -0.118,-0.391 -0.659,-0.08 -0.986,-0.233 0.031,-0.233 0.272,-0.393 0.544,-0.438 0.223,-0.038 0.723,-0.018 0.855,0.1 0.077,0.065 0.004,0.229 0.13,0.337 0.132,0.119 0.294,0.107 0.465,0.079 0.062,-0.295 -0.383,-0.221 -0.335,-0.416 0.35,-0.229 0.918,-0.041 1.346,-0.104 0.246,-0.036 0.505,-0.21 0.723,-0.333 0.208,-0.118 0.477,-0.324 0.698,-0.13 0.06,0.211 -0.192,0.281 -0.309,0.386 -0.396,0.352 -0.804,0.756 -1.112,1.165 0.189,0.184 0.532,0.092 0.852,0.13 0.125,0.016 0.282,0.053 0.414,0.077 0.154,0.028 0.319,0.02 0.44,0.051 0.217,0.053 0.276,0.286 0.491,0.286 0.354,-1e-4 0.358,-0.384 0.158,-0.623 0.063,-0.244 0.163,-0.371 0.077,-0.542 -0.159,-0.319 -0.745,-0.016 -0.775,-0.414 -0.019,-0.258 0.216,-0.247 0.309,-0.44 -0.043,-0.499 0.409,-0.535 0.361,-0.982 -0.021,-0.187 -0.179,-0.19 -0.309,-0.365 -0.065,-0.086 -0.1,-0.251 -0.175,-0.325 -0.604,-0.054 -1.215,-0.087 -1.833,-0.087 m -10.416,4.072 h 0.002 c 0.121,0.017 0.266,0.147 0.412,0.158 0.138,0.003 0.252,-0.076 0.337,-0.053 0.216,0.057 0.308,0.384 0.104,0.544 -0.169,0.021 -0.235,-0.074 -0.363,-0.051 -0.351,0.06 -0.486,0.748 -0.749,0.725 -0.248,-0.021 -0.382,-0.625 -0.13,-0.804 0.016,-0.157 -0.114,-0.182 -0.106,-0.337 0.075,-0.095 0.287,-0.198 0.493,-0.181 m -1.165,0.081 c 0.072,0.002 0.126,0.02 0.154,0.051 -0.034,0.276 -0.25,0.258 -0.463,0.386 -0.368,0.222 -0.581,0.56 -0.698,1.035 -0.034,0.138 -0.397,0.504 -0.572,0.467 -0.41,-0.087 0.113,-0.843 0.207,-0.958 0.104,-0.127 0.243,-0.239 0.365,-0.386 0.118,-0.142 0.195,-0.335 0.309,-0.414 0.125,-0.087 0.482,-0.19 0.698,-0.181 m 3.063,0.93 c 0.131,0.002 0.25,0.024 0.304,0.077 -0.084,0.342 -0.821,0.252 -1.09,0.128 0.017,-0.129 0.219,-0.164 0.388,-0.181 0.119,-0.003 0.267,-0.028 0.398,-0.024 m -1.675,0.631 c 0.087,-0.002 0.176,0.017 0.268,0.041 -0.238,0.199 -0.496,0.312 -0.905,0.442 -0.197,0.062 -0.536,0.139 -0.57,-0.081 -0.041,-0.269 0.288,-0.207 0.467,-0.231 0.226,-0.031 0.474,-0.163 0.739,-0.171 m 25.704,1.534 c -0.031,0.073 -0.053,0.146 -0.049,0.217 0.016,0.125 0.153,0.245 0.183,0.414 0.016,0.089 -0.042,0.283 0,0.365 0.125,0.242 0.451,0.068 0.684,0.081 -0.265,-0.365 -0.53,-0.731 -0.818,-1.076 m 1.323,1.78 c -0.037,0.178 -0.158,0.411 -0.256,0.56 -0.226,0.343 -0.532,0.359 -0.855,0.542 -0.27,0.153 -0.386,0.408 -0.544,0.674 -0.171,0.287 -0.278,0.461 -0.207,0.877 -0.231,0.459 -0.581,0.74 -1.06,0.958 -0.142,0.064 -0.335,0.087 -0.465,0.181 -0.104,0.074 -0.162,0.274 -0.309,0.44 -0.182,0.202 -0.372,0.287 -0.467,0.442 -0.074,0.119 -0.1,0.356 -0.181,0.516 -0.11,0.217 -0.346,0.324 -0.491,0.544 -0.066,0.102 -0.11,0.308 -0.183,0.442 -0.164,0.298 -0.444,0.513 -0.414,0.775 0.03,0.253 0.317,0.298 0.337,0.518 0.003,0.125 -0.082,0.201 -0.077,0.337 0.003,0.199 0.138,0.338 0.154,0.491 0.038,0.384 -0.131,0.538 -0.203,0.8 -0.034,0.125 -0.02,0.267 -0.053,0.365 -0.063,0.192 -0.332,0.366 -0.337,0.593 -0.002,0.162 0.166,0.292 0.179,0.518 0.003,0.156 -0.077,0.323 -0.049,0.467 0.055,0.282 0.558,0.609 0.777,0.828 0.293,0.293 0.676,0.519 0.802,0.828 0.106,0.262 0.105,0.603 0.309,0.8 0.151,0.146 0.402,0.237 0.595,0.388 0.18,0.142 0.377,0.264 0.57,0.414 0.315,0.246 0.791,0.738 1.293,0.7 0.262,-0.019 0.531,-0.233 0.828,-0.286 0.306,-0.055 0.703,-0.083 1.011,-0.051 0.236,0.024 0.48,0.165 0.725,0.154 0.259,-0.016 0.557,-0.208 0.852,-0.337 0.237,-0.103 0.528,-0.218 0.848,-0.302 0.146,-0.985 0.225,-1.993 0.225,-3.02 0,-4.133 -1.236,-7.964 -3.351,-11.157 m -33.383,6.783 c -0.43,0.024 -0.712,0.043 -0.956,0.154 -0.56,0.255 -0.452,1.012 -1.011,1.191 -0.194,0.062 -0.459,0.065 -0.672,0.104 -0.184,0.034 -0.408,0.134 -0.597,0.13 -0.053,-10e-5 -0.127,-0.04 -0.193,-0.061 -0.05,0.355 -0.091,0.714 -0.122,1.074 0.532,0.102 0.807,0.807 1.277,1.041 0.129,0.064 0.297,0.067 0.463,0.104 0.134,0.03 0.236,0.087 0.365,0.13 0.274,0.093 0.609,0.082 0.828,0.179 0.33,0.146 0.572,0.766 0.855,0.932 0.016,0.167 -0.033,0.392 0.026,0.516 0.134,0.182 0.323,0.142 0.544,0.26 0.264,0.142 0.345,0.51 0.595,0.623 0.087,0.038 0.303,0.034 0.44,0.075 0.343,0.104 0.455,0.501 0.749,0.414 0.193,-0.057 0.178,-0.255 0.209,-0.44 0.127,-0.138 0.267,-0.357 0.465,-0.361 0.322,-0.016 0.35,0.332 0.467,0.645 0.066,0.176 0.239,0.33 0.284,0.516 0.08,0.322 0.04,1.284 -0.028,1.476 -0.081,0.236 -0.4,0.336 -0.597,0.597 -0.093,0.123 -0.137,0.302 -0.207,0.388 -0.127,0.154 -0.315,0.195 -0.41,0.337 -0.053,0.08 -0.105,0.252 -0.158,0.361 -0.155,0.329 -0.363,0.563 -0.233,0.958 0.055,0.163 0.309,0.272 0.309,0.463 10e-5,0.225 -0.479,0.427 -0.516,0.674 -0.028,0.184 0.149,0.512 0.207,0.751 0.043,0.181 0.384,0.294 0.491,0.414 0.182,0.204 0.327,0.493 0.493,0.749 0.328,0.504 0.585,1.118 0.905,1.606 0.169,0.256 0.406,0.486 0.518,0.751 0.057,0.134 0.05,0.294 0.102,0.414 0.185,0.417 1,0.853 1.423,1.06 0.197,0.096 0.416,0.13 0.597,0.231 0.274,0.153 0.818,0.564 0.956,0.804 0.123,0.216 0.2,0.742 0.26,1.086 0.08,0.454 10e-5,0.803 0.026,1.295 0.016,0.266 0.102,0.534 0.104,0.8 10e-5,0.093 -0.049,0.163 -0.053,0.258 0,0.016 0.004,0.033 0.004,0.049 2.542,1.15 5.359,1.806 8.34,1.806 0.539,0 1.071,-0.028 1.599,-0.069 0.023,-0.04 0.044,-0.081 0.073,-0.118 0.121,-0.159 0.229,-0.299 0.309,-0.44 0.077,-0.473 -0.188,-0.803 -0.077,-1.216 0.124,-0.465 0.766,-0.748 1.216,-0.958 0.155,-0.072 0.313,-0.189 0.44,-0.233 0.312,-0.108 0.701,-0.05 0.986,-0.154 0.485,-0.177 0.536,-0.698 0.775,-1.139 0.113,-0.209 0.262,-0.419 0.284,-0.568 0.019,-0.134 -0.049,-0.26 -0.028,-0.418 0.023,-0.156 0.164,-0.291 0.207,-0.463 0.057,-0.224 0.081,-0.553 0.081,-0.802 0,-0.205 -0.096,-0.385 -0.104,-0.57 -0.034,-0.671 0.242,-0.746 0.491,-1.112 0.125,-0.181 0.171,-0.388 0.258,-0.518 0.417,-0.622 1.14,-0.922 1.088,-1.863 -0.017,-0.311 -0.213,-1.014 -0.442,-1.114 -0.131,-0.057 -0.431,-0.003 -0.621,-0.077 -0.612,-0.228 -0.971,-0.986 -1.605,-1.035 -0.135,-0.016 -0.26,0.055 -0.412,0.053 -0.251,-0.016 -0.629,-0.176 -0.907,-0.207 -0.176,-0.019 -0.412,0.053 -0.518,0 -0.162,-0.079 -0.178,-0.376 -0.309,-0.465 -0.104,-0.072 -0.307,-0.096 -0.465,-0.158 -0.255,-0.098 -0.457,-0.212 -0.751,-0.233 -0.091,-0.003 -0.204,0.044 -0.309,0.028 -0.163,-0.028 -0.291,-0.22 -0.442,-0.311 -0.188,-0.114 -0.362,-0.17 -0.44,-0.333 0.17,-0.557 -0.3,-0.713 -0.414,-1.035 -0.055,-0.151 -0.03,-0.333 -0.077,-0.467 -0.068,-0.193 -0.258,-0.304 -0.467,-0.465 -0.374,-0.288 -0.707,-0.559 -1.242,-0.625 -0.235,-0.03 -0.469,0.071 -0.753,0.053 -0.301,-0.019 -0.679,-0.283 -0.905,-0.54 -0.219,-0.251 -0.326,-0.477 -0.516,-0.597 -0.181,-0.116 -0.421,-0.113 -0.544,-0.231 -0.055,-0.051 -0.046,-0.139 -0.104,-0.26 -0.091,-0.188 -0.243,-0.293 -0.13,-0.518 -0.206,-0.106 -0.212,0.197 -0.438,0.158 -0.201,-0.286 -0.371,-0.421 -0.828,-0.337 -0.209,0.038 -0.326,0.303 -0.57,0.309 -0.2,0.016 -0.357,-0.223 -0.621,-0.26 -0.199,-0.028 -0.426,0.054 -0.568,0.028 -0.221,-0.044 -0.289,-0.228 -0.491,-0.361 -0.148,-0.097 -0.435,-0.263 -0.518,-0.26 -0.26,0.016 -0.445,0.553 -0.804,0.363 -0.174,-0.221 0.284,-0.337 0.077,-0.544 -0.157,-0.157 -0.289,0.071 -0.414,0.158 -0.144,0.099 -0.279,0.197 -0.438,0.256 -0.355,0.133 -0.578,0.063 -0.855,0.207 -0.257,0.133 -0.268,0.356 -0.414,0.621 -0.119,0.217 -0.391,0.533 -0.57,0.546 -0.217,0.016 -0.424,-0.303 -0.621,-0.388 -0.593,-0.257 -0.88,0.228 -1.372,0.235 -0.457,0.016 -1.109,-0.738 -1.086,-1.167 0.003,-0.262 0.151,-0.659 0.181,-0.984 0.028,-0.258 0.204,-0.413 0.207,-0.649 0.003,-0.314 -0.417,-0.556 -0.621,-0.593 -0.483,-0.089 -1.155,0.195 -1.709,-0.028 -0.106,-0.175 0.124,-0.297 0.183,-0.467 0.034,-0.097 0.014,-0.226 0.049,-0.333 0.061,-0.165 0.234,-0.293 0.311,-0.467 0.058,-0.133 0.072,-0.325 0.13,-0.491 0.068,-0.188 0.192,-0.309 0.207,-0.442 0.019,-0.174 -0.047,-0.376 -0.183,-0.491 m 6.918,5.478 c 0.175,0.016 0.197,0.379 0.018,0.408 -0.194,0.03 -0.292,-0.303 -0.104,-0.39 0.032,-0.016 0.062,-0.017 0.087,-0.016 v -0.002"
         inkscape:connector-curvature="0"
         style="opacity:0.447;fill:#272370" />
      <path
         id="path932"
         transform="matrix(0.6971,0,0,0.69604,-352.55,42.24)"
         d="m 532.57,174.03 -6.178,39.625 c 0,0 -8.829,-73.36 -19.651,-100.79 -16.587,-42.03 -23.966,-41.688 -24.02,-41.626 11.11,28.23 9.09,43.4 9.09,43.4 0,0 -19.683,-53.645 -71.72,-70.71 -57.649,-18.897 -88.84,-13.73 -92.44,-12.753 -0.547,-0.004 -1.075,-0.005 -1.577,-0.005 0.424,0.033 0.839,0.077 1.263,0.11 -0.019,0.011 -0.047,0.022 -0.042,0.028 0.233,0.285 63.7,11.09 74.956,26.56 0,0 -26.958,0 -53.787,7.731 -1.213,0.347 98.71,12.481 119.14,112.33 0,0 -10.955,-22.852 -24.502,-26.733 8.909,27.1 6.622,78.53 -1.862,104.09 -1.092,3.287 -2.209,-14.209 -18.921,-21.745 5.355,38.36 -0.32,99.2 -26.931,115.95 -2.074,1.305 16.682,-60.06 3.771,-36.33 -74.33,113.96 -162.19,52.59 -201.69,25.579 20.243,4.406 58.674,-0.686 75.68,-13.341 0.022,-0.015 0.04,-0.028 0.062,-0.045 18.473,-12.631 29.412,-21.854 39.24,-19.672 9.83,2.194 16.374,-7.671 8.739,-16.423 -7.644,-8.769 -26.2,-20.821 -51.31,-14.254 -17.708,4.638 -39.654,24.23 -73.15,4.392 -25.71,-15.234 -28.13,-27.889 -28.359,-36.654 0.634,-3.107 1.434,-6.01 2.383,-8.659 2.959,-8.265 11.933,-10.759 16.924,-12.728 8.467,1.454 15.761,4.095 23.421,8.02 0.099,-2.549 0.131,-5.933 -0.009,-9.771 0.734,-1.459 0.28,-5.86 -0.897,-11.24 -0.678,-5.369 -1.781,-10.924 -3.517,-15.985 0.006,-1e-4 0.001,-0.005 0.016,-0.007 0.029,-0.001 0.056,-0.021 0.082,-0.037 0.041,-0.023 0.076,-0.059 0.108,-0.099 0.006,-0.001 0.016,-0.017 0.023,-0.027 0.043,-0.064 0.08,-0.142 0.103,-0.243 0.531,-2.405 6.262,-7.04 13.395,-12.03 6.392,-4.469 13.907,-9.217 19.827,-12.892 5.24,-3.254 9.229,-5.668 10.08,-6.301 0.321,-0.243 0.707,-0.527 1.127,-0.852 0.078,-0.061 0.156,-0.121 0.236,-0.185 0.049,-0.038 0.099,-0.077 0.149,-0.117 2.817,-2.244 7.02,-6.483 7.905,-15.405 0.002,-0.022 0.005,-0.042 0.006,-0.064 0.026,-0.262 0.048,-0.528 0.067,-0.799 0.015,-0.188 0.026,-0.378 0.038,-0.571 0.007,-0.148 0.017,-0.295 0.023,-0.445 0.016,-0.352 0.026,-0.711 0.031,-1.075 0,-0.021 1e-4,-0.04 0.002,-0.061 0.012,-0.864 -0.003,-1.764 -0.054,-2.709 -0.028,-0.528 -0.065,-1 -0.155,-1.438 -0.004,-0.023 -10e-4,-0.048 -0.015,-0.071 -0.009,-0.042 -0.019,-0.085 -0.03,-0.127 -0.019,-0.076 -0.04,-0.152 -0.063,-0.224 -0.003,-0.009 -0.006,-0.017 -0.009,-0.024 -0.027,-0.083 -0.058,-0.164 -0.09,-0.242 -0.002,-0.003 -0.002,-0.005 -0.003,-0.008 -0.913,-2.139 -4.333,-2.947 -18.459,-3.187 -0.013,-1e-4 -0.026,-1e-4 -0.039,-1e-4 -5.764,-0.098 -13.301,-0.102 -23.18,-0.062 -17.317,0.07 -26.889,-16.929 -29.944,-23.506 4.188,-23.16 16.29,-39.657 36.17,-50.847 0.376,-0.212 0.302,-0.387 -0.142,-0.509 3.887,-2.352 -47,-0.064 -70.41,29.707 -20.775,-5.164 -38.882,-4.816 -54.49,-1.154 -2.997,-0.084 -6.731,-0.458 -11.164,-1.381 -10.379,-9.404 -25.24,-26.772 -26.03,-47.5 0,0 -0.048,0.038 -0.131,0.106 -0.011,-0.199 -0.03,-0.396 -0.038,-0.595 0,0 -31.623,24.304 -26.89,90.56 -0.012,1.061 -0.034,2.076 -0.062,3.06 -8.558,11.608 -12.805,21.365 -13.12,23.519 -7.581,15.44 -15.276,38.675 -21.538,73.949 0,0 4.379,-13.888 13.169,-29.618 -6.464,19.803 -11.544,50.603 -8.561,96.8 0,0 0.789,-10.243 3.58,-24.997 2.181,28.652 11.729,64.02 35.864,105.62 46.33,79.85 117.54,120.18 196.25,126.36 13.977,1.152 28.15,1.179 42.41,0.096 1.311,-0.092 2.621,-0.188 3.931,-0.299 16.13,-1.132 32.361,-3.568 48.562,-7.481 221.44,-53.54 197.37,-320.94 197.37,-320.94"
         inkscape:connector-curvature="0"
         style="fill:url(#3)" />
      <g
         id="g940"
         style="fill:url(#linearGradient1555);fill-rule:evenodd">
        <path
           id="path934"
           d="m -328.74,133.5 c 9.444,-17.436 18.319,-28.874 37.579,-32.29 -10.833,-10.328 -13.918,-16.07 -18.906,-33.725 -19.268,20.841 -19.14,42.494 -18.673,66.01"
           inkscape:connector-curvature="0"
           style="fill:url(#4)" />
        <path
           id="path936"
           d="m -208.66,177.1 c 11.229,-14.766 46.34,-22.761 36.03,-43.12 -24.18,-6.162 -39.33,5.305 -48.945,-17.389 -8.297,31.981 2.876,47.39 12.917,60.51"
           inkscape:connector-curvature="0"
           style="fill:url(#5)" />
        <path
           id="path938"
           d="m -228.84,197.98 c -47.28,4.698 -39.13,30.09 -35.778,55.49 l 12.11,-10.09 c 8.495,24.705 58.644,20.754 86.45,12.11 12.664,-3.938 23.918,-2.969 28.817,-0.962 13.796,2.961 12.874,-8.73 6.842,-12.208 -33.02,-37.592 -63.52,34.659 -104.22,-26.704 -2.488,-3.752 -0.037,-9.9 5.786,-17.635"
           inkscape:connector-curvature="0"
           style="fill:url(#6)" />
      </g>
    </g>
    <g
       id="g1025"
       transform="matrix(0.71858591,0,0,0.71858591,78.64761,208.32985)"
       style="enable-background:new">
      <rect
         style="fill:url(#0-85)"
         id="rect1017"
         rx="0.99400002"
         y="4.461"
         x="-6.211"
         height="21.129999"
         width="28" />
      <g
         id="g1023"
         style="fill:#ffffff;stroke:#ffffff;stroke-width:0.175;stroke-linecap:round;stroke-linejoin:round">
        <path
           id="path1019"
           d="M 5.085,13.1 C 5.054,13.071 5.015,13.056 4.967,13.056 H 0.044 c -0.048,0 -0.087,0.015 -0.118,0.044 -0.031,0.029 -0.046,0.067 -0.046,0.112 v 0.312 c 0,0.046 0.015,0.083 0.046,0.112 0.031,0.029 0.07,0.044 0.118,0.044 h 4.923 c 0.048,0 0.087,-0.015 0.118,-0.044 0.031,-0.029 0.046,-0.067 0.046,-0.112 v -0.312 c 0,-0.046 -0.015,-0.083 -0.046,-0.112 z"
           inkscape:connector-curvature="0" />
        <path
           id="path1021"
           d="M -2.792,8.489 C -2.826,8.456 -2.866,8.44 -2.91,8.44 c -0.044,0 -0.084,0.016 -0.118,0.049 l -0.256,0.244 c -0.034,0.033 -0.051,0.07 -0.051,0.112 0,0.042 0.017,0.08 0.051,0.112 l 2.02,1.917 -2.02,1.918 c -0.034,0.033 -0.051,0.07 -0.051,0.112 0,0.042 0.017,0.08 0.051,0.112 l 0.256,0.244 c 0.034,0.033 0.073,0.049 0.118,0.049 0.044,0 0.084,-0.016 0.118,-0.049 l 2.39,-2.274 c 0.034,-0.033 0.051,-0.07 0.051,-0.112 0,-0.042 -0.017,-0.08 -0.051,-0.112 l -2.39,-2.274 z"
           inkscape:connector-curvature="0" />
      </g>
    </g>
    <g
       id="g1119"
       transform="matrix(0.4899154,0,0,0.4899154,-77.939088,-37.12293)">
      <circle
         style="fill:url(#0-7);fill-rule:evenodd"
         id="circle1109"
         r="25.427"
         cy="555.01001"
         cx="423.59"
         transform="matrix(0.8076,0,0,0.8076,66.28,74.824)" />
      <g
         style="fill:url(#linearGradient1553)"
         id="g1117">
        <path
           style="fill:url(#linearGradient1547)"
           id="path1111"
           d="m 408.32,505.05 c 9.972,0 18,8.03 18,18 0,9.972 -8.03,18 -18,18 -8.212,0 -15.1,-5.45 -17.273,-12.941 l 6.871,2.758 c 0.52,2.388 2.648,4.184 5.188,4.184 2.751,0 5.02,-2.109 5.285,-4.793 l 6.812,-4.984 c 3.928,0 7.117,-3.178 7.117,-7.105 0,-3.929 -3.189,-7.117 -7.117,-7.117 -3.907,0 -7.078,3.152 -7.113,7.05 l -4.434,6.352 c -0.181,-0.018 -0.365,-0.028 -0.551,-0.028 -0.991,0 -1.916,0.271 -2.711,0.746 l -9.973,-4.01 c 0.94,-9.08 8.566,-16.11 17.898,-16.11"
           inkscape:connector-curvature="0" />
        <path
           style="fill:url(#linearGradient1549)"
           id="path1113"
           d="m 415.22,514.33 c -2.103,0 -3.809,1.709 -3.809,3.813 0,2.103 1.705,3.812 3.809,3.812 2.104,0 3.813,-1.709 3.813,-3.812 0,-2.104 -1.709,-3.813 -3.813,-3.813"
           inkscape:connector-curvature="0" />
        <path
           style="fill:url(#linearGradient1551)"
           id="path1115"
           d="m 403.11,525.83 c 2.165,0 3.906,1.741 3.906,3.906 0,2.165 -1.741,3.906 -3.906,3.906 -1.506,0 -2.805,-0.841 -3.457,-2.082 0.642,0.259 1.284,0.516 1.926,0.777 1.592,0.64 3.407,-0.13 4.047,-1.723 0.64,-1.592 -0.138,-3.399 -1.73,-4.04 l -1.629,-0.652 c 0.271,-0.058 0.554,-0.094 0.844,-0.094"
           inkscape:connector-curvature="0" />
      </g>
    </g>
    <g
       id="g1150"
       transform="matrix(0.41917477,0,0,0.41917477,62.290066,290.0245)"
       style="enable-background:new">
      <path
         style="fill:url(#0-5)"
         id="path1146"
         d="m 74.62,-25.74 c -0.015,-1.123 -0.879,-2.051 -1.997,-2.153 -9.291,-0.869 -16.873,-5.834 -19.373,-7.651 -0.522,-0.381 -1.23,-0.381 -1.753,0 -2.495,1.816 -10.08,6.782 -19.368,7.651 -1.118,0.103 -1.977,1.03 -1.997,2.153 -0.112,7.328 1.064,32.21 21.683,37.745 0.366,0.098 0.752,0.098 1.118,0 C 73.551,6.473 74.728,-18.412 74.62,-25.74"
         inkscape:connector-curvature="0" />
      <path
         id="path1148"
         d="m 52.35,-30.04 c -0.236,0 -0.473,0.073 -0.674,0.221 -1.917,1.409 -7.744,5.263 -14.885,5.937 -0.859,0.08 -1.52,0.799 -1.535,1.67 -0.086,5.686 0.818,24.991 16.664,29.29 0.281,0.076 0.578,0.076 0.859,0 15.846,-4.292 16.751,-23.601 16.668,-29.29 -0.011,-0.871 -0.674,-1.59 -1.533,-1.67 -7.141,-0.674 -12.969,-4.528 -14.891,-5.937 -0.201,-0.148 -0.437,-0.221 -0.674,-0.221 m 2.986,10.186 c 2.78,0 5.03,2.248 5.03,5.03 0,2.78 -2.248,5.03 -5.03,5.03 -0.651,0 -1.241,-0.119 -1.773,-0.297 L 50.9,-7.429 h -1.775 v 1.775 h -1.773 v 1.773 h -2.957 v -2.957 l 6.211,-6.211 c -0.177,-0.591 -0.297,-1.182 -0.297,-1.773 0,-2.78 2.248,-5.03 5.03,-5.03 m 1.479,1.773 c -1.01,0 -1.773,0.77 -1.773,1.775 0,1.01 0.768,1.773 1.773,1.773 1.01,0 1.775,-0.768 1.775,-1.773 0,-1.01 -0.77,-1.775 -1.775,-1.775"
         inkscape:connector-curvature="0"
         style="opacity:0.675;fill:#ffffff" />
    </g>
    <g
       id="g1193"
       transform="matrix(0.19604999,0,0,0.19604999,6.3573227,116.76472)">
      <g
         id="g1189"
         transform="matrix(1.0105,0,0,1.0105,-2.49,-5.618)">
        <path
           style="color:#000000;fill:url(#1-8)"
           id="path1173"
           transform="translate(-111.71,1.997)"
           d="m 317.89,471.99 c -27.16,0 -49.18,22.02 -49.18,49.18 0,27.16 22.02,49.18 49.18,49.18 27.16,0 49.18,-22.02 49.18,-49.18 0,-27.16 -22.02,-49.18 -49.18,-49.18"
           inkscape:connector-curvature="0" />
        <g
           id="g1187"
           transform="matrix(0.75147,-0.23143,0.23143,0.75147,71.74,462.4)"
           style="fill-rule:evenodd">
          <path
             id="path1175"
             d="m 196.12,154.9 c 7.198,-20.298 7.779,-41.2 -17.641,-56.11 l 4.317,-3.19 c -33.407,-13.9 -50.552,-6.02 -60.17,9.209 l 5.185,-1.514 c 1.562,20.79 14.901,19.71 22.709,28.902 43.892,-14.307 39.511,8.194 45.605,22.709"
             inkscape:connector-curvature="0"
             style="fill:#f1f1f1" />
          <path
             id="path1177"
             d="m 167.07,177.77 c 8.641,-2.653 22.366,-12.91 27.05,-27.05 0,0 0.927,0.564 1.815,4.556 7.521,-14.858 2.477,-26.25 -4.317,-37.16 -0.071,4.666 -3.941,6.756 -3.941,6.756 -5.01,-7.951 -12.58,-12.513 -21.488,-15.313 -11.407,-3.587 -30.632,8.1 -38.19,-5.518 1.189,11.766 6.298,18.567 13.325,19.33 10.954,15.719 36.456,24.24 25.751,54.4"
             inkscape:connector-curvature="0"
             style="fill:#dedede" />
          <path
             id="path1179"
             d="m 124.85,181.31 c 27.86,9.665 66.27,-5.834 53.817,-42.36 -0.842,2.036 -4.504,4.129 -4.504,4.129 -14.14,-24.21 -34.683,-21.706 -54.613,-21.77 22.761,-0.355 30.356,37.04 5.301,59.997"
             inkscape:connector-curvature="0"
             style="fill:#c1c1c1" />
          <path
             id="path1181"
             d="m 116.22,178.49 c 19.418,11.243 37.622,-5.289 41.927,-27.984 0,0 -4.263,4.02 -7.01,4.193 10.584,-27.769 -18.534,-34.05 -32.2,-32.475 26.757,9.961 28.85,40.995 -2.716,56.27"
             inkscape:connector-curvature="0"
             style="fill:#999999" />
          <path
             id="path1183"
             d="m 105.47,135.01 c 4.911,-8.397 13.753,-13.694 31.03,-13.449 -5.117,-4.987 -7.896,-10.783 -8.509,-18.456 -21.688,2.823 -23.463,17.275 -22.521,31.905"
             inkscape:connector-curvature="0"
             style="fill:#dedede" />
          <path
             id="path1185"
             d="m 148.7,110.36 c 0.424,12.609 16.17,6.077 13.761,-1.562 -4.295,0.131 -8.506,0.15 -13.761,1.562"
             inkscape:connector-curvature="0"
             style="fill:#999999" />
        </g>
      </g>
      <path
         style="color:#000000;fill:none;stroke:url(#2-5);stroke-width:3.24099994"
         id="path1191"
         d="m 205.36,472.43 c -27.446,0 -49.695,22.249 -49.695,49.695 0,27.446 22.249,49.695 49.695,49.695 27.446,0 49.695,-22.249 49.695,-49.695 0,-27.446 -22.249,-49.695 -49.695,-49.695 z"
         inkscape:connector-curvature="0" />
    </g>
    <g
       style="fill:url(#linearGradient1545);enable-background:new"
       id="g1257"
       transform="matrix(0.04612226,0,0,0.04612226,109.57066,239.55327)">
      <g
         style="fill:url(#linearGradient1543);fill-rule:evenodd"
         id="g1243">
        <path
           style="fill:url(#1-3)"
           id="path1239"
           transform="matrix(3.78507,-0.00288,0.00287,3.79615,172.52,-534.72)"
           d="m -23.525,154.67 47.829,0.036 -0.042,55.17 -55.44,-0.042 0.037,-48.05 c 0.006,-7.638 7.211,-7.109 7.614,-7.108"
           inkscape:connector-curvature="0" />
        <path
           style="fill:url(#2-6)"
           id="path1241"
           d="M 23.02,0.094 V 23.012 H 0 v 20.07 c 0,3.191 3,2.971 3.168,2.971 h 19.92 19.807 c 0.168,0 3.168,0.22 3.168,-2.971 V 23.135 H 46.11 V 3.065 c 0,-3.191 -3,-2.973 -3.168,-2.973 h -19.92"
           transform="matrix(9.0882,0,0,9.0885,54.15,51.638)"
           inkscape:connector-curvature="0" />
      </g>
      <ellipse
         style="fill:url(#3-4)"
         id="ellipse1245"
         cy="236.94"
         cx="51.668999"
         transform="matrix(3.78507,0,0,3.79615,172.52,-534.72)"
         rx="32.310001"
         ry="32.220001" />
      <g
         id="g1253"
         style="fill:#ffffff;fill-opacity:0.85500004">
        <path
           id="path1247"
           transform="translate(17.227,13.704)"
           d="m 152.42,95.41 v 39.27 h 39.12 v 17.688 h -39.12 v 39.27 h -17.838 v -39.27 H 95.462 V 134.68 h 39.12 V 95.41 h 17.838"
           inkscape:connector-curvature="0" />
        <path
           id="path1249"
           transform="matrix(0.82758,0,0,1.20834,-14.234,6.677)"
           d="m 403.56,115.78 h 113.38 v 16 H 403.56 v -16"
           inkscape:connector-curvature="0" />
        <path
           id="path1251"
           transform="translate(16.178,-4.24)"
           d="m 188.64,336.04 -32.527,32.527 32.527,32.378 -12.591,12.591 -32.527,-32.378 -32.527,32.378 -12.591,-12.591 32.527,-32.378 -32.527,-32.527 12.591,-12.591 32.527,32.527 32.527,-32.527 12.591,12.591"
           inkscape:connector-curvature="0" />
      </g>
      <path
         id="path1255"
         d="m 320.02,340.77 h 96.08 v 17.613 H 320.02 V 340.77 m 0,34.1 h 96.08 v 17.763 H 320.02 V 374.87"
         inkscape:connector-curvature="0"
         style="fill:#f47713;stroke-width:5.2329998" />
    </g>
    <g
       id="g1312"
       transform="matrix(0.40598741,0,0,0.40598741,104.32429,242.25012)"
       style="fill-rule:evenodd">
      <rect
         style="fill:url(#0-0);stroke-width:0.46399999"
         id="rect1304"
         rx="2.898"
         width="45.080002"
         height="46.644001"
         x="-164.67999"
         y="0.67799997" />
      <path
         style="fill:none;stroke:url(#1-2);stroke-width:3;stroke-linecap:round;stroke-linejoin:round"
         id="path1306"
         d="m 3.784,0 h 34.14 6.291 c 1.652,0 2.982,1.33 2.982,2.982 v 42.04 c 0,1.652 -1.33,2.982 -2.982,2.982 H 3.785 c -1.652,0 -2.982,-1.33 -2.982,-2.982 V 2.982 C 0.803,1.33 2.133,0 3.785,0"
         transform="matrix(0.97176,0,0,0.97176,-165.46,0.678)"
         inkscape:connector-curvature="0" />
      <path
         style="fill:url(#2-4)"
         id="path1308"
         transform="translate(-166.14)"
         d="M 26.11,1.091 46.039,18.759 46.045,1.079"
         inkscape:connector-curvature="0" />
      <path
         id="path1310"
         d="m -131.79,16.14 -4.478,0.003 c -0.482,0 -0.869,0.283 -0.868,0.633 l 0.019,20.732 c 0,0.351 0.388,0.632 0.869,0.632 h 4.477 c 0.482,0 0.87,-0.283 0.869,-0.633 l -0.019,-20.732 c 0,-0.351 -0.388,-0.634 -0.869,-0.633 m -9.09,5.666 -4.477,0.003 c -0.482,0 -0.87,0.283 -0.869,0.633 l 0.019,15.02 c 0,0.351 0.388,0.634 0.869,0.633 h 4.478 c 0.482,0 0.869,-0.283 0.868,-0.633 l -0.018,-15.02 c 0,-0.351 -0.389,-0.634 -0.871,-0.633 m -8.757,5.751 -4.477,10e-5 c -0.482,0 -0.869,0.283 -0.868,0.633 l 0.017,9.31 c 0,0.351 0.389,0.633 0.871,0.633 h 4.478 c 0.482,0 0.869,-0.283 0.868,-0.633 l -0.018,-9.31 c 0,-0.351 -0.389,-0.634 -0.871,-0.633"
         inkscape:connector-curvature="0"
         style="fill:#70bd3e" />
    </g>
    <g
       id="g1361"
       transform="matrix(0.40598741,0,0,0.40598741,-25.643579,242.25012)">
      <g
         id="g1357"
         style="fill-rule:evenodd">
        <rect
           style="fill:url(#0-33);stroke-width:0.46399999"
           id="rect1351"
           rx="2.898"
           y="0.67799997"
           x="69.43"
           height="46.644001"
           width="45.080002" />
        <path
           style="fill:none;stroke:url(#1-85);stroke-width:3;stroke-linecap:round;stroke-linejoin:round"
           id="path1353"
           transform="matrix(0.97176,0,0,0.97176,68.65,0.678)"
           d="m 3.784,0 h 34.14 6.291 c 1.652,0 2.982,1.33 2.982,2.982 v 42.04 c 0,1.652 -1.33,2.982 -2.982,2.982 H 3.785 c -1.652,0 -2.982,-1.33 -2.982,-2.982 V 2.982 C 0.803,1.33 2.133,0 3.785,0"
           inkscape:connector-curvature="0" />
        <path
           style="fill:url(#2-1)"
           id="path1355"
           d="M 26.11,1.091 46.039,18.759 46.045,1.079"
           transform="translate(67.973)"
           inkscape:connector-curvature="0" />
      </g>
      <path
         id="path1359"
         d="m 80.47,32.69 v 5.123 h 5.123 L 98.532,24.874 93.409,19.751 Z m 22.594,-12.331 c 0.542,-0.542 0.542,-1.396 0,-1.938 l -3.202,-3.202 c -0.542,-0.542 -1.396,-0.542 -1.938,0 l -2.676,2.693 5.123,5.123 z"
         inkscape:connector-curvature="0"
         style="fill:#1e70e9" />
    </g>
    <g
       id="g1432"
       transform="matrix(0.41917477,0,0,0.41917477,133.70799,290.02361)"
       style="enable-background:new">
      <path
         style="fill:url(#1-35)"
         id="path1416"
         d="m -51.12,3.496 0.417,6.576 c 0,0.682 0.558,1.231 1.252,1.231 h 43.656 c 0.693,0 1.252,-0.549 1.252,-1.231 L -4.126,3.496 H -51.12"
         inkscape:connector-curvature="0" />
      <path
         style="fill:url(#0-1)"
         id="path1418"
         d="M -47.37,-35.05 H -8.3 c 0.693,0 1.252,0.549 1.252,1.231 l 2.921,37.12 c 0,0.682 -0.558,1.231 -1.252,1.231 h -44.493 c -0.693,0 -1.252,-0.549 -1.252,-1.231 l 2.503,-37.12 c 0,-0.682 0.558,-1.231 1.252,-1.231"
         inkscape:connector-curvature="0" />
      <rect
         style="fill:url(#3-0)"
         id="rect1420"
         rx="0.64600003"
         y="7.572"
         x="-37.18"
         height="1.291"
         width="19.254999" />
      <circle
         style="opacity:0.45199998;fill:url(#2-41)"
         id="ellipse1422"
         cx="-9.9420004"
         cy="8.2639999"
         r="1.783" />
      <g
         id="g1428"
         style="fill:#e3e8ea;stroke-width:1.31700003">
        <path
           id="path1424"
           d="m -9.946,8.31 c 0.04,0 0.075,-0.015 0.104,-0.044 0.029,-0.029 0.044,-0.064 0.044,-0.104 V 7.419 c 0,-0.04 -0.015,-0.075 -0.044,-0.104 -0.029,-0.029 -0.064,-0.044 -0.104,-0.044 -0.04,0 -0.075,0.015 -0.104,0.044 -0.029,0.029 -0.044,0.064 -0.044,0.104 v 0.743 c 0,0.04 0.015,0.075 0.044,0.104 0.029,0.029 0.064,0.044 0.104,0.044"
           inkscape:connector-curvature="0"
           style="opacity:0.66799999" />
        <path
           id="path1426"
           d="M -9.148,7.912 C -9.21,7.787 -9.298,7.683 -9.411,7.599 -9.443,7.574 -9.48,7.565 -9.521,7.57 c -0.041,0.005 -0.073,0.025 -0.097,0.058 -0.025,0.032 -0.034,0.069 -0.028,0.11 0.006,0.041 0.025,0.073 0.057,0.098 0.076,0.057 0.134,0.127 0.176,0.21 0.041,0.083 0.062,0.171 0.062,0.265 0,0.08 -0.016,0.157 -0.047,0.23 -0.031,0.073 -0.074,0.136 -0.127,0.19 -0.053,0.053 -0.117,0.096 -0.19,0.127 -0.073,0.031 -0.15,0.047 -0.23,0.047 -0.08,0 -0.157,-0.016 -0.23,-0.047 -0.073,-0.031 -0.136,-0.074 -0.19,-0.127 -0.053,-0.053 -0.096,-0.117 -0.127,-0.19 -0.031,-0.073 -0.047,-0.15 -0.047,-0.23 0,-0.094 0.021,-0.182 0.062,-0.265 0.041,-0.083 0.1,-0.153 0.176,-0.21 0.032,-0.025 0.052,-0.057 0.057,-0.098 0.006,-0.041 -0.004,-0.077 -0.028,-0.11 -0.024,-0.033 -0.056,-0.053 -0.097,-0.058 -0.041,-0.005 -0.078,0.004 -0.111,0.029 -0.113,0.084 -0.201,0.189 -0.263,0.313 -0.062,0.125 -0.093,0.257 -0.093,0.398 0,0.121 0.024,0.236 0.071,0.346 0.047,0.11 0.111,0.205 0.19,0.284 0.08,0.08 0.174,0.143 0.284,0.19 0.11,0.047 0.225,0.071 0.346,0.071 0.121,0 0.236,-0.024 0.346,-0.071 0.11,-0.047 0.205,-0.111 0.284,-0.19 0.08,-0.08 0.143,-0.174 0.19,-0.284 0.047,-0.11 0.071,-0.225 0.071,-0.346 0,-0.141 -0.031,-0.274 -0.093,-0.398"
           inkscape:connector-curvature="0"
           style="opacity:0.66799999" />
      </g>
      <path
         id="path1430"
         d="m -19.766,-24.536 -3.502,-0.006 c -0.133,0 -0.261,0.042 -0.356,0.118 -0.094,0.076 -0.148,0.178 -0.148,0.286 l -0.006,2.822 c -10e-5,0.224 0.224,0.405 0.501,0.405 h 0.488 l -0.005,2.15 -3.712,2.01 0.018,-8.216 1.291,0.002 c 0.139,0 0.267,-0.058 0.339,-0.153 0.072,-0.096 0.078,-0.214 0.015,-0.313 l -2.546,-3.976 c -0.068,-0.106 -0.204,-0.172 -0.352,-0.173 -0.148,0 -0.284,0.066 -0.352,0.172 l -2.564,3.968 c -0.064,0.099 -0.059,0.218 0.012,0.313 0.072,0.096 0.201,0.154 0.339,0.154 l 1.292,0.002 -0.025,11.379 -3.996,-2.175 0.004,-1.707 c 0.62,-0.329 1.03,-0.894 1.032,-1.537 0.002,-1.02 -1.022,-1.848 -2.289,-1.85 -1.265,-0.002 -2.292,0.824 -2.294,1.844 -0.002,0.643 0.407,1.209 1.025,1.54 l -0.005,2.248 c -1e-4,0.339 0.207,0.656 0.557,0.845 l 5.962,3.244 -0.007,3.509 c -0.841,0.363 -1.42,1.069 -1.422,1.892 -0.002,1.193 1.195,2.161 2.675,2.164 1.482,0.002 2.684,-0.963 2.686,-2.156 0.002,-0.823 -0.574,-1.53 -1.413,-1.895 l 0.015,-6.673 5.683,-3.069 c 0.068,-0.037 0.131,-0.079 0.188,-0.125 0.235,-0.188 0.371,-0.447 0.371,-0.719 l 0.006,-2.691 h 0.489 c 0.133,0 0.261,-0.043 0.355,-0.118 0.094,-0.076 0.147,-0.178 0.148,-0.286 l 0.005,-2.822 c 10e-5,-0.224 -0.223,-0.405 -0.501,-0.405 z"
         inkscape:connector-curvature="0"
         style="fill:#a1a7ae;stroke:#909296;stroke-width:0.095" />
    </g>
    <g
       id="g1510"
       transform="matrix(0.41917895,0,0,0.41917895,-66.060315,28.239113)">
      <circle
         style="fill:url(#5-9)"
         id="circle1498"
         cx="347.51999"
         cy="523.10999"
         r="12.948" />
      <circle
         style="fill:url(#1-0)"
         id="circle1500"
         cx="369.62"
         cy="523.10999"
         r="12.948" />
      <circle
         style="fill:url(#4-5)"
         id="circle1502"
         cx="347.51999"
         cy="544.47998"
         r="12.948" />
      <circle
         style="fill:url(#0-76)"
         id="circle1504"
         cx="369.62"
         cy="544.47998"
         r="12.948" />
      <circle
         style="fill:url(#3-9)"
         id="circle1506"
         r="10.358"
         cy="533.79999"
         cx="358.57001" />
      <path
         style="fill:url(#2-3)"
         id="path1508"
         d="m 358.31,527.65 -3.458,6.03 c -0.727,1.275 -0.783,2.896 0,4.261 1.177,2.052 3.794,2.762 5.847,1.585 2.052,-1.177 2.762,-3.794 1.585,-5.847 l -3.458,-6.03 c -0.114,-0.199 -0.402,-0.199 -0.516,0"
         inkscape:connector-curvature="0" />
    </g>
    <g
       id="g1580"
       transform="matrix(0.67121828,0,0,0.67121828,-110.87502,-137.78628)">
      <circle
         style="fill:url(#1-38);stroke:url(#0-08);stroke-width:1.52400005"
         id="circle1576"
         r="14.226"
         cy="531.73999"
         cx="400.51999" />
      <path
         id="path1578"
         transform="matrix(0.59674,0,0,0.59674,390.64,522.81)"
         d="M 31.821,4.074 C 31.511,2.9 30.31,2.199 29.136,2.508 27.96,2.817 27.259,4.019 27.568,5.194 c 0.146,0.551 0.488,0.996 0.933,1.284 -0.107,1.614 -0.588,3.58 -2.01,5.299 -4,-4.569 -5.696,-6.434 -6.479,-7.189 0.418,-0.265 0.771,-0.43 1,-0.523 0.529,0.44 1.254,0.629 1.97,0.44 C 24.155,4.196 24.857,2.993 24.547,1.82 24.236,0.645 23.033,-0.057 21.86,0.251 20.979,0.483 20.365,1.217 20.242,2.064 18.586,2.767 12.933,5.896 13.776,15.646 7.585,15.826 4.329,17.465 2.848,18.535 2.467,18.415 2.05,18.396 1.635,18.505 c -1.174,0.312 -1.875,1.512 -1.567,2.688 0.31,1.175 1.512,1.877 2.686,1.565 0.968,-0.254 1.614,-1.117 1.637,-2.069 l 6.472,6.794 c -0.152,0.094 -0.301,0.181 -0.446,0.257 -0.516,-0.376 -1.19,-0.525 -1.856,-0.353 -1.174,0.31 -1.876,1.513 -1.567,2.688 0.31,1.175 1.512,1.877 2.687,1.566 0.916,-0.24 1.541,-1.026 1.627,-1.918 3.03,-1.504 5.535,-5.198 4.881,-11.935 1.943,-0.009 3.734,-0.228 5.343,-0.651 2.406,-0.633 4.406,-1.716 5.921,-3.229 1.911,-1.911 3,-4.414 3.188,-7.291 0.932,-0.448 1.449,-1.506 1.175,-2.543 M 11.726,26.823 4.973,19.735 C 5.406,19.5 5.943,19.248 6.605,19.006 l 6.326,6.303 c -0.362,0.623 -0.777,1.119 -1.205,1.514 M 13.427,24.284 7.76,18.637 c 0.871,-0.244 1.902,-0.461 3.11,-0.612 l 3.242,3.094 c -0.095,1.261 -0.342,2.304 -0.685,3.165 m -1.148,-6.406 c 0.552,-0.043 1.135,-0.072 1.751,-0.086 0.073,0.666 0.111,1.289 0.121,1.872 l -1.872,-1.786 m 3.66,-2.239 c -0.141,-1.48 -0.119,-2.781 0.019,-3.92 l 3.165,3.712 c -0.996,0.144 -2.06,0.214 -3.184,0.208 m 4.411,-0.427 -4.154,-4.87 c 0.222,-0.963 0.531,-1.787 0.892,-2.491 1.349,1.457 3.855,4.284 5.838,6.54 -0.788,0.344 -1.649,0.618 -2.576,0.821 m 3.572,-1.316 c -3.516,-4.01 -5.31,-6.01 -6.267,-7.01 0.479,-0.703 0.997,-1.25 1.491,-1.667 0.847,0.837 4.134,4.537 6.602,7.345 -0.535,0.502 -1.148,0.946 -1.826,1.329"
         inkscape:connector-curvature="0"
         style="opacity:0.9;fill:#ffffff;fill-opacity:0.85" />
    </g>
    <g
       id="g1611"
       transform="matrix(0.48788648,0,0,0.48788648,-41.340243,-3.4626186)">
      <rect
         style="fill:url(#0-31)"
         id="rect1607"
         rx="20.622"
         y="502.98001"
         x="387.88"
         height="41.240002"
         width="41.240002" />
      <path
         id="path1609"
         transform="matrix(-1.55255,-0.00329,0.00328,-1.54777,1038.24,1356.26)"
         d="m 412.39,537.33 c -0.401,-0.404 -1.052,-0.404 -1.453,0 l -4.057,4.497 -4.057,-4.497 c -0.402,-0.404 -1.052,-0.404 -1.453,0 -0.402,0.404 -0.402,1.058 0,1.461 l 4.719,5.231 c 0.217,0.218 0.507,0.314 0.791,0.296 0.284,0.018 0.574,-0.078 0.791,-0.296 l 4.719,-5.231 c 0.401,-0.404 0.401,-1.058 0,-1.461 m -5.516,-4.351 c 0.935,0 1.693,-0.761 1.693,-1.7 0,-0.939 -0.758,-1.7 -1.693,-1.7 -0.935,0 -1.693,0.761 -1.693,1.7 0,0.939 0.758,1.7 1.693,1.7 m 0,4.858 c 0.935,0 1.693,-0.761 1.693,-1.7 0,-0.939 -0.758,-1.7 -1.693,-1.7 -0.935,0 -1.693,0.761 -1.693,1.7 0,0.939 0.758,1.7 1.693,1.7"
         inkscape:connector-curvature="0"
         style="fill:#ffffff;fill-opacity:0.85500004" />
    </g>
    <g
       transform="matrix(0.41917582,0,0,0.41917582,-13.317804,65.486718)"
       id="layer1-0"
       inkscape:label="Capa 1">
      <g
         transform="matrix(1.1146822,0,0,1.1146822,-46.226152,-60.063951)"
         id="g4322">
        <path
           style="opacity:1;fill:url(#linearGradient4309);fill-opacity:1;stroke:none;stroke-width:2;stroke-linecap:round;stroke-linejoin:round;stroke-miterlimit:4;stroke-dasharray:none;stroke-opacity:1"
           d="m 407.44643,503.77261 a 3.0003,3.0003 0 0 0 -1.70508,5.40234 l 3.41016,2.62305 h -16.58008 a 3.0003,3.0003 0 1 0 0,6 h 7.51953 l -12.2832,8.92383 a 3.0003,3.0003 0 1 0 3.52539,4.85351 l 6.27734,-4.56054 a 15.999973,15.999973 0 0 0 -0.0391,0.7832 15.999973,15.999973 0 0 0 16,16 15.999973,15.999973 0 0 0 16,-16 15.999973,15.999973 0 0 0 -6.95508,-13.19727 3.0003,3.0003 0 0 0 -0.21679,-0.18164 l -13,-10 a 3.0003,3.0003 0 0 0 -1.95313,-0.64648 z"
           id="path4184"
           inkscape:connector-curvature="0" />
        <circle
           style="opacity:1;fill:url(#linearGradient4506);fill-opacity:1;stroke:none;stroke-width:2;stroke-linecap:round;stroke-linejoin:round;stroke-miterlimit:4;stroke-dasharray:none;stroke-opacity:1"
           id="path4184-1"
           r="9.9999886"
           cy="527.79797"
           cx="413.57144" />
        <circle
           style="opacity:1;fill:url(#linearGradient4498);fill-opacity:1;stroke:none;stroke-width:2;stroke-linecap:round;stroke-linejoin:round;stroke-miterlimit:4;stroke-dasharray:none;stroke-opacity:1"
           id="path4184-1-9"
           r="3.9999883"
           cy="-527.79797"
           cx="-413.57144"
           transform="scale(-1)" />
      </g>
      <g
         transform="translate(-59.835883,4.1588603)"
         inkscape:label="Capa 1"
         id="layer1-7" />
    </g>
  </g>
</svg>
