<?xml version="1.0" standalone="no"?><!-- Generator: Gravit.io --><svg xmlns="http://www.w3.org/2000/svg" xmlns:xlink="http://www.w3.org/1999/xlink" style="isolation:isolate" width="22" height="22"><defs><clipPath id="_clipPath_VpeXzB8k6VSibQJWuygD6IoLZgIpUZ5d"><rect width="22" height="22"/></clipPath></defs><g transform="translate(0,0)" clip-path="url(#_clipPath_VpeXzB8k6VSibQJWuygD6IoLZgIpUZ5d)"><path d=" M 4.95216907136 4 L 17.04783092864 4 C 18.125262360702894 3.9999999999999982 19 4.874737639297102 19 5.95216907136 L 19 16.04783092864 C 19 17.125262360702894 18.125262360702894 18 17.04783092864 18 L 4.95216907136 18 C 3.874737639297106 18 3.0000000000000018 17.125262360702894 3 16.04783092864 L 3 5.95216907136 C 3.0000000000000018 4.874737639297102 3.874737639297106 3.9999999999999982 4.95216907136 4 Z  M 8.65625 14.375 L 7.484375 14.375 L 7.484375 13.203125 L 5.15625 13.203125 L 5.15625 5.96875 L 16.96875 5.96875 L 16.96875 13.203125 L 14.515625 13.203125 L 14.515625 14.375 L 13.34375 14.375 L 13.34375 15.96875 L 8.65625 15.96875 L 8.65625 14.375 Z " fill-rule="evenodd" fill="rgb(249,38,38)" fill-opacity="0.9"/></g></svg>