<svg width="49" height="50" viewBox="0 0 49 50" fill="none" xmlns="http://www.w3.org/2000/svg">
<path d="M29.5658 0.30851L0.934378 9.76197C0.418335 9.93236 0.135944 10.4895 0.30364 11.0065L12.1382 47.4865C12.3059 48.0034 12.8602 48.2844 13.3762 48.114L42.0076 38.6605C42.5237 38.4901 42.8061 37.933 42.6384 37.416L30.8038 0.935971C30.6361 0.419048 30.0819 0.138124 29.5658 0.30851Z" fill="url(#paint0_linear)"/>
<path d="M39.656 0.300165L6.28356 4.57855C5.69413 4.65411 5.28179 5.19264 5.36257 5.78137L11.0618 47.3199C11.1426 47.9086 11.6859 48.3246 12.2753 48.249L45.6478 43.9707C46.2372 43.8951 46.6495 43.3566 46.5687 42.7678L40.8695 1.22935C40.7888 0.640608 40.2454 0.2246 39.656 0.300165Z" fill="url(#paint1_linear)"/>
<path d="M36.9952 48.1577C42.3575 48.7433 47.1791 44.8711 47.7647 39.5088C48.3503 34.1466 44.4781 29.3249 39.1158 28.7394C33.7536 28.1538 28.9319 32.026 28.3464 37.3882C27.7608 42.7505 31.633 47.5721 36.9952 48.1577Z" fill="url(#paint2_linear)"/>
<path d="M34 40.9953V43H36.0047L41.0676 37.9371L39.0629 35.9324L34 40.9953ZM42.841 36.17C43.053 35.958 43.053 35.6237 42.841 35.4117L41.5883 34.159C41.3763 33.947 41.042 33.947 40.83 34.159L39.7829 35.2128L41.7876 37.2176L42.841 36.17Z" fill="white" fill-opacity="0.854"/>
<rect x="12.015" y="11.4566" width="21" height="3" transform="rotate(-7.25201 12.015 11.4566)" fill="#C3C3C3" fill-opacity="0.854"/>
<rect x="12.8987" y="18.4006" width="13" height="3" transform="rotate(-7.25201 12.8987 18.4006)" fill="#C3C3C3" fill-opacity="0.854"/>
<rect x="27.7787" y="16.5071" width="7" height="3" transform="rotate(-7.25201 27.7787 16.5071)" fill="#C3C3C3" fill-opacity="0.854"/>
<rect x="13.7823" y="25.3446" width="8" height="3" transform="rotate(-7.25201 13.7823 25.3446)" fill="#C3C3C3" fill-opacity="0.854"/>
<defs>
<linearGradient id="paint0_linear" x1="12.4226" y1="39.5064" x2="12.3233" y2="2.97683" gradientUnits="userSpaceOnUse">
<stop stop-color="#454545"/>
<stop offset="1" stop-color="#757575"/>
</linearGradient>
<linearGradient id="paint1_linear" x1="30.8503" y1="43.7214" x2="20.5792" y2="3.08342" gradientUnits="userSpaceOnUse">
<stop stop-color="#ECECEC"/>
<stop offset="1" stop-color="#FCFCFC"/>
</linearGradient>
<linearGradient id="paint2_linear" x1="36.6951" y1="47.793" x2="38.6161" y2="29.3356" gradientUnits="userSpaceOnUse">
<stop stop-color="#C62929"/>
<stop offset="1" stop-color="#FE5353"/>
</linearGradient>
</defs>
</svg>
