<?xml version="1.0" encoding="UTF-8" standalone="no"?>
<svg
   xmlns:dc="http://purl.org/dc/elements/1.1/"
   xmlns:cc="http://creativecommons.org/ns#"
   xmlns:rdf="http://www.w3.org/1999/02/22-rdf-syntax-ns#"
   xmlns:svg="http://www.w3.org/2000/svg"
   xmlns="http://www.w3.org/2000/svg"
   viewBox="0 0 900 899.99999"
   height="900"
   width="900"
   xml:space="preserve"
   id="svg2"
   version="1.1"><metadata
     id="metadata8"><rdf:RDF><cc:Work
         rdf:about=""><dc:format>image/svg+xml</dc:format><dc:type
           rdf:resource="http://purl.org/dc/dcmitype/StillImage" /><dc:title></dc:title></cc:Work></rdf:RDF></metadata><defs
     id="defs6" /><g
     transform="matrix(1.3333333,0,0,-1.3333333,295.23901,604.73217)"
     id="g10"><g
       transform="scale(0.1)"
       id="g12"><g
         transform="matrix(3.1417645,0,0,3.1417645,-2214.2926,-2214.5087)"
         id="g4565"><path
           d="m 1013.95,2133.53 c 69.39,30.2 118.86,-33.8 161.64,-76.57 76.41,-64.82 149.06,-134.05 217.97,-206.71 39.51,-43.1 23.51,-121.96 -30.21,-145.96 -41.31,-22.53 -91.76,-5.55 -123.43,25.8 -83.11,79.68 -162.62,163.27 -248.99,239.36 -53.551,43.75 -42.614,138.77 23.02,164.08"
           style="fill:#05d5a3;fill-opacity:1;fill-rule:nonzero;stroke:none"
           id="path30" /><path
           d="m 1770.87,1912.79 c 47.03,25.31 122.29,4.73 135.36,-51.27 19.92,-49.8 -12.08,-99.1 -47.19,-132.25 -76.9,-75.92 -151.68,-153.96 -226.46,-232 -27.26,-32.99 -75.26,-41.81 -113.8,-24.01 -55.67,23.03 -70.69,106.62 -28.73,148.91 94.37,96 177.64,203.6 280.82,290.62"
           style="fill:#05d5a3;fill-opacity:1;fill-rule:nonzero;stroke:none"
           id="path32" /><path
           d="m 267.965,1897.28 c 48.984,29.55 109.555,9.96 145.801,-30.21 81.472,-82.28 165.554,-161.8 248.007,-242.78 54.536,-50.45 16.493,-157.23 -59.589,-157.56 -63.676,-9.8 -97.477,53.23 -140.09,87.68 -74.778,61.88 -143.188,130.78 -210.946,200.17 -38.371,39.51 -26.937,112 16.817,142.7"
           style="fill:#05d5a3;fill-opacity:1;fill-rule:nonzero;stroke:none"
           id="path34" /><path
           d="m 331.152,1410.89 c 82.125,31.68 162.289,-71.84 111.024,-143.18 -60.574,-79.03 -139.438,-142.54 -205.559,-217.16 -39.023,-40.16 -75.429,-101.878 -140.4139,-94.038 -76.0859,2.937 -114.289,108.738 -58.9414,159.998 99.9223,95.68 179.2733,216.67 293.8903,294.38"
           style="fill:#05d5a3;fill-opacity:1;fill-rule:nonzero;stroke:none"
           id="path36" /><path
           d="m 1996.35,1181.99 c 56.49,36.9 141.72,-5.06 143.52,-73.15 8.32,-64 -55.19,-97.79 -90.13,-140.738 -61.55,-74.122 -129.14,-143.192 -198.86,-209.641 -50.94,-48.16 -146.13,-14.359 -155.27,55.348 -11.92,72.011 55.67,116.742 98.29,162.781 70.53,65.48 130.12,142.7 202.45,205.4"
           style="fill:#05d5a3;fill-opacity:1;fill-rule:nonzero;stroke:none"
           id="path38" /><path
           d="m 545.363,675.68 c 54.856,32.82 138.129,-6.2 139.434,-72.809 C 694.918,538.539 631.406,504.41 596.633,461.469 535.238,387.18 466.832,319.102 397.766,251.828 c -44.899,-45.387 -140.578,-23.5 -153.313,41.633 -21.715,62.859 31.676,113.641 72.328,153.16 78.864,73.801 147.438,158.207 228.582,229.059"
           style="fill:#05d5a3;fill-opacity:1;fill-rule:nonzero;stroke:none"
           id="path40" /><path
           d="m 1520.42,678.141 c 30.37,10.437 68.9,11.257 94.53,-10.621 95.03,-90.29 196.09,-174.211 285.4,-270.54 27.59,-27.921 30.04,-74.781 11.76,-108.41 -25.8,-60.41 -114.3,-61.879 -157.24,-19.101 -86.69,81.801 -169.96,167.672 -257.15,249.152 -52.73,40.981 -40.33,135.84 22.7,159.52"
           style="fill:#05d5a3;fill-opacity:1;fill-rule:nonzero;stroke:none"
           id="path42" /><path
           d="m 788.801,447.27 c 45.222,24.492 98.289,1.3 130.781,-33.141 81.958,-81.309 163.918,-162.617 248.988,-240.668 56,-53.223 18.12,-161.1524 -60.74,-161.961 -63.67,-7.51172 -96.82,55.6719 -139.596,90.281 -74.289,61.559 -143.187,129.321 -209.8,199.039 -40.168,42.942 -23.84,122.77 30.367,146.45"
           style="fill:#05d5a3;fill-opacity:1;fill-rule:nonzero;stroke:none"
           id="path44" /><path
           d="m 643.438,2051.42 c 0,-51.56 -41.793,-93.35 -93.348,-93.35 -51.555,0 -93.348,41.79 -93.348,93.35 0,51.55 41.793,93.35 93.348,93.35 51.555,0 93.348,-41.8 93.348,-93.35"
           style="fill:#05d5a3;fill-opacity:1;fill-rule:nonzero;stroke:none"
           id="path46" /><path
           d="m 915.527,1803.13 c 0,-51.56 -41.793,-93.35 -93.347,-93.35 -51.555,0 -93.344,41.79 -93.344,93.35 0,51.55 41.789,93.35 93.344,93.35 51.554,0 93.347,-41.8 93.347,-93.35"
           style="fill:#05d5a3;fill-opacity:1;fill-rule:nonzero;stroke:none"
           id="path48" /><path
           d="m 186.695,1575.04 c 0,-51.56 -41.793,-93.35 -93.3512,-93.35 C 41.793,1481.69 0,1523.48 0,1575.04 c 0,51.55 41.793,93.34 93.3438,93.34 51.5582,0 93.3512,-41.79 93.3512,-93.34"
           style="fill:#05d5a3;fill-opacity:1;fill-rule:nonzero;stroke:none"
           id="path50" /><path
           d="m 1668.53,2058.82 c 0,-51.55 -41.79,-93.34 -93.34,-93.34 -51.56,0 -93.35,41.79 -93.35,93.34 0,51.56 41.79,93.35 93.35,93.35 51.55,0 93.34,-41.79 93.34,-93.35"
           style="fill:#05d5a3;fill-opacity:1;fill-rule:nonzero;stroke:none"
           id="path52" /><path
           d="m 2151.96,1598.46 c 0,-51.55 -41.79,-93.35 -93.34,-93.35 -51.55,0 -93.35,41.8 -93.35,93.35 0,51.55 41.8,93.35 93.35,93.35 51.55,0 93.34,-41.8 93.34,-93.35"
           style="fill:#05d5a3;fill-opacity:1;fill-rule:nonzero;stroke:none"
           id="path54" /><path
           d="m 1896.84,1330.23 c 0,-51.55 -41.8,-93.34 -93.35,-93.34 -51.55,0 -93.34,41.79 -93.34,93.34 0,51.55 41.79,93.34 93.34,93.34 51.55,0 93.35,-41.79 93.35,-93.34"
           style="fill:#05d5a3;fill-opacity:1;fill-rule:nonzero;stroke:none"
           id="path56" /><path
           d="m 2151.53,576.32 c 0,-51.55 -41.79,-93.34 -93.35,-93.34 -51.55,0 -93.34,41.79 -93.34,93.34 0,51.559 41.79,93.352 93.34,93.352 51.56,0 93.35,-41.793 93.35,-93.352"
           style="fill:#05d5a3;fill-opacity:1;fill-rule:nonzero;stroke:none"
           id="path58" /><path
           d="m 1423.53,348.699 c 0,-51.558 -41.8,-93.347 -93.35,-93.347 -51.55,0 -93.35,41.789 -93.35,93.347 0,51.551 41.8,93.352 93.35,93.352 51.55,0 93.35,-41.801 93.35,-93.352"
           style="fill:#05d5a3;fill-opacity:1;fill-rule:nonzero;stroke:none"
           id="path60" /><path
           d="M 1692.09,93.3516 C 1692.09,41.7891 1650.29,0 1598.74,0 c -51.56,0 -93.35,41.7891 -93.35,93.3516 0,51.5464 41.79,93.3394 93.35,93.3394 51.55,0 93.35,-41.793 93.35,-93.3394"
           style="fill:#05d5a3;fill-opacity:1;fill-rule:nonzero;stroke:none"
           id="path62" /><path
           d="m 669.82,93.3516 c 0,-51.5508 -41.793,-93.3398812 -93.343,-93.3398812 -51.559,0 -93.352,41.7890812 -93.352,93.3398812 0,51.5584 41.793,93.3474 93.352,93.3474 51.55,0 93.343,-41.789 93.343,-93.3474"
           style="fill:#05d5a3;fill-opacity:1;fill-rule:nonzero;stroke:none"
           id="path64" /><path
           d="m 442.148,824.488 c 0,-51.547 -41.793,-93.34 -93.343,-93.34 -51.559,0 -93.352,41.793 -93.352,93.34 0,51.563 41.793,93.352 93.352,93.352 51.55,0 93.343,-41.789 93.343,-93.352"
           style="fill:#05d5a3;fill-opacity:1;fill-rule:nonzero;stroke:none"
           id="path66" /><path
           d="m 186.695,553.18 c 0,-51.551 -41.793,-93.34 -93.3512,-93.34 C 41.793,459.84 0,501.629 0,553.18 c 0,51.558 41.793,93.351 93.3438,93.351 51.5582,0 93.3512,-41.793 93.3512,-93.351"
           style="fill:#05d5a3;fill-opacity:1;fill-rule:nonzero;stroke:none"
           id="path68" /></g></g></g></svg>