<svg width="48" height="48" viewBox="0 0 48 48" fill="none" xmlns="http://www.w3.org/2000/svg">
<path d="M0 23.999C0 10.753 10.754 0 24 0C37.246 0 48 10.753 48 23.999C48 37.245 37.246 47.999 24 47.999C10.754 47.999 0 37.245 0 23.999Z" fill="url(#paint0_linear)"/>
<path d="M34.9185 35.3986C34.8089 35.2589 34.6198 35.2182 34.4641 35.3006L29.3012 38.0085L29.3979 24.5348C29.3987 24.4845 29.3885 24.4359 29.3705 24.39C29.261 22.4375 27.1387 20.6186 24.36 20.1269C21.245 19.5752 18.4099 20.8745 18.0402 23.0195C17.6697 25.168 19.9024 27.3598 23.0182 27.9115C24.2976 28.1379 25.5632 28.0641 26.6432 27.7068L26.6697 44.6291C26.6697 44.7826 26.7647 44.924 26.911 44.9778C27.0505 45.0298 27.2148 44.9891 27.3141 44.8702L34.9116 35.8609C35.0263 35.7238 35.0297 35.5278 34.9201 35.3882" fill="white" fill-opacity="0.93"/>
<defs>
<linearGradient id="paint0_linear" x1="25.7451" y1="46.799" x2="25.7451" y2="0" gradientUnits="userSpaceOnUse">
<stop offset="0.0217391" stop-color="#262626"/>
<stop offset="1" stop-color="#3A3A3A"/>
</linearGradient>
</defs>
</svg>
