<?xml version="1.0" standalone="no"?><!-- Generator: Gravit.io --><svg xmlns="http://www.w3.org/2000/svg" xmlns:xlink="http://www.w3.org/1999/xlink" style="isolation:isolate" viewBox="841 415.998 46 46" width="46" height="46"><g id="visual-studio-code"><linearGradient id="_lgradient_0" x1="47.798838207777194%" y1="3.271279180419029%" x2="48.25959375892985%" y2="98.29532856149126%"><stop offset="0%" stop-opacity="1" style="stop-color:rgb(59,175,255)"/><stop offset="100%" stop-opacity="1" style="stop-color:rgb(0,107,180)"/></linearGradient><path d=" M 841.138 436.501 C 842.516 423.883 853.879 414.757 866.497 416.135 C 879.115 417.513 888.24 428.876 886.862 441.494 C 885.484 454.112 874.121 463.238 861.503 461.86 C 848.885 460.482 839.76 449.119 841.138 436.501 Z " fill="url(#_lgradient_0)"/><path d=" M 869.807 426.636 L 860.09 436.375 L 853.871 431.554 L 851.397 432.784 L 851.397 445.087 L 853.871 446.318 L 860.087 441.496 L 869.807 451.239 L 876 448.72 L 876 448.717 L 876 429.158 L 876 429.155 L 869.807 426.636 Z  M 869.885 433.899 L 869.885 443.973 L 863.389 438.936 L 869.885 433.899 Z  M 853.83 435.222 L 857.533 438.936 L 853.83 442.649 L 853.83 435.222 Z " fill="rgb(255,255,255)" fill-opacity="0.93"/></g></svg>