<?xml version="1.0" encoding="UTF-8" standalone="no"?>
<svg
   xmlns:dc="http://purl.org/dc/elements/1.1/"
   xmlns:cc="http://creativecommons.org/ns#"
   xmlns:rdf="http://www.w3.org/1999/02/22-rdf-syntax-ns#"
   xmlns:svg="http://www.w3.org/2000/svg"
   xmlns="http://www.w3.org/2000/svg"
   xmlns:xlink="http://www.w3.org/1999/xlink"
   id="svg6166"
   version="1.1"
   viewBox="0 0 12.7 12.699999"
   height="48"
   width="48">
  <defs
     id="defs6160">
    <linearGradient
       gradientUnits="userSpaceOnUse"
       y2="14.708"
       x2="79.019997"
       y1="33.27"
       x1="79.110001"
       id="0"
       xlink:href="#1"
       gradientTransform="matrix(0.26458071,0,0,0.26458071,-156.26666,85.914366)" />
    <linearGradient
       id="1">
      <stop
         style="stop-color:#006bb4;stop-opacity:1"
         stop-color="#006bb4"
         id="stop4645" />
      <stop
         style="stop-color:#3bafff;stop-opacity:1"
         offset="1"
         stop-color="#3bafff"
         id="stop4647" />
    </linearGradient>
    <linearGradient
       gradientUnits="userSpaceOnUse"
       y2="4.5110002"
       x2="58.43"
       y1="46.080002"
       x1="63.439999"
       id="3"
       gradientTransform="matrix(0.2645801,0,0,0.2645811,-172.45168,46.949051)">
      <stop
         id="stop2"
         stop-color="#2a2c2f" />
      <stop
         id="stop4"
         stop-color="#424649"
         offset="1" />
    </linearGradient>
    <linearGradient
       gradientTransform="matrix(0.0946777,0,0,0.09305317,-64.229678,7.0595016)"
       gradientUnits="userSpaceOnUse"
       y2="104.85"
       x2="-1060.26"
       y1="203.10001"
       x1="-1092.91"
       id="2"
       xlink:href="#1" />
  </defs>
  <metadata
     id="metadata6163">
    <rdf:RDF>
      <cc:Work
         rdf:about="">
        <dc:format>image/svg+xml</dc:format>
        <dc:type
           rdf:resource="http://purl.org/dc/dcmitype/StillImage" />
        <dc:title></dc:title>
      </cc:Work>
    </rdf:RDF>
  </metadata>
  <g
     transform="translate(154.45958,-66.887843)"
     id="layer1">
    <g
       id="g6758">
      <rect
         transform="matrix(0.94957846,-0.31352949,0.30857952,0.95119855,0,0)"
         y="17.532417"
         x="-168.42966"
         height="10.667909"
         width="8.4983444"
         rx="0.26034784"
         id="rect16"
         style="fill:url(#2);fill-opacity:1;stroke-width:0.26458111" />
      <rect
         style="fill:url(#3);stroke-width:0.26458061"
         transform="matrix(0.99188218,-0.12716028,0.13592979,0.99071847,0,0)"
         y="48.042564"
         x="-160.98213"
         height="11.662735"
         width="9.4714394"
         rx="0.2846882"
         id="rect18" />
      <g
         transform="matrix(0.26458069,0,0,0.26458069,-164.66997,68.442296)"
         style="fill:#ffffff;fill-opacity:0.85100002"
         id="g26">
        <path
           d="m 57.733,12.926 c -0.367,-0.251 -0.867,-0.157 -1.118,0.21 l -4.071,5.95 c -0.12,0.176 -0.166,0.393 -0.127,0.602 0.039,0.21 0.16,0.395 0.336,0.515 l 5.925,4.053 c 0.183,0.125 0.4,0.165 0.602,0.127 0.202,-0.038 0.39,-0.153 0.515,-0.336 0.251,-0.367 0.157,-0.867 -0.21,-1.118 l -5.261,-3.599 3.617,-5.286 c 0.251,-0.367 0.157,-0.867 -0.21,-1.117"
           id="path20" />
        <path
           d="m 76.4,14.589 -5.926,-4.053 c -0.366,-0.251 -0.867,-0.157 -1.117,0.21 -0.251,0.367 -0.157,0.867 0.21,1.118 l 5.262,3.599 -3.617,5.286 c -0.251,0.367 -0.157,0.867 0.21,1.118 0.183,0.125 0.4,0.165 0.602,0.127 0.202,-0.038 0.39,-0.153 0.515,-0.336 l 4.071,-5.95 c 0.12,-0.176 0.166,-0.393 0.127,-0.602 -0.04,-0.209 -0.16,-0.395 -0.337,-0.515"
           id="path22" />
        <path
           d="m 67.76,10.828 c -0.398,-0.196 -0.88,-0.032 -1.076,0.367 L 61,22.752 c -0.196,0.398 -0.032,0.88 0.367,1.076 0.162,0.08 0.338,0.1 0.502,0.069 0.24,-0.045 0.458,-0.199 0.574,-0.436 l 5.684,-11.557 c 0.196,-0.398 0.032,-0.88 -0.366,-1.076"
           id="path24" />
      </g>
      <circle
         r="2.5841601"
         cy="92.220909"
         cx="-135.24573"
         transform="rotate(6.2323116)"
         id="circle28"
         style="fill:url(#0);fill-opacity:1;stroke-width:0.26458073" />
      <path
         style="opacity:1;vector-effect:none;fill:#ffffff;fill-opacity:0.81568627;stroke:#c0e6ff;stroke-width:0.079375;stroke-linecap:butt;stroke-linejoin:miter;stroke-miterlimit:4;stroke-dasharray:none;stroke-dashoffset:0;stroke-opacity:1"
         d="m -143.79043,75.574332 -1.11573,1.118326 -0.71412,-0.553616 -0.28402,0.14127 v 1.412701 l 0.28402,0.14127 0.71375,-0.553616 1.1161,1.118696 0.71116,-0.289197 v -3.7e-4 -2.245898 -3.7e-4 z m 0.009,0.833937 v 1.156787 l -0.74594,-0.578393 z m -1.84355,0.151995 0.42528,0.426399 -0.42528,0.426399 z"
         id="path4539" />
    </g>
  </g>
</svg>
