<svg version="1.1" id="Vrstva_1" xmlns="http://www.w3.org/2000/svg" xmlns:xlink="http://www.w3.org/1999/xlink" x="0px" y="0px"
	 viewBox="0 0 22 22" style="enable-background:new 0 0 22 22;" xml:space="preserve">
<style type="text/css">
	.st0{opacity:0.9;fill:#FFFFFF;fill-opacity:0.9;}
	.st1{opacity:0.3;}
	.st2{fill:#FFFFFF;}
</style>
<path class="st0" d="M16.7,15.7V15c0-1-0.8-1.8-1.8-1.8h0c-1,0-1.8,0.8-1.8,1.8v0.7c-0.1,0-0.2,0.2-0.2,0.3v2.7
	c0,0.2,0.1,0.3,0.3,0.3h3.4c0.2,0,0.3-0.1,0.3-0.3V16C17,15.8,16.9,15.7,16.7,15.7z M15.4,18C15.4,18,15.4,18,15.4,18L14.6,18
	c0,0-0.1,0,0-0.1l0.1-0.6c-0.1-0.1-0.1-0.2-0.1-0.3c0-0.2,0.2-0.4,0.4-0.4h0c0.2,0,0.4,0.2,0.4,0.4c0,0.1-0.1,0.2-0.1,0.3L15.4,18z
	 M16.1,15.7h-2.3V15c0-0.6,0.5-1.1,1.1-1.1h0c0.6,0,1.1,0.5,1.1,1.1V15.7z"/>
<g class="st1">
	<path class="st2" d="M12,16c0-0.3,0.1-0.5,0.2-0.8V15c0-1.5,1.2-2.7,2.6-2.7L19,5c-2.3-1.2-5-2-8-2S5.3,3.8,3,5l8,14l1-1.7V16z"/>
</g>
<path class="st0" d="M12,16c0-0.3,0.1-0.5,0.2-0.8v-0.1C11.8,15,11.4,15,11,15c-0.7,0-1.4,0.2-2,0.5l2,3.5l1-1.7V16z"/>
</svg>
