<?xml version="1.0" standalone="no"?><!-- Generator: Gravit.io --><svg xmlns="http://www.w3.org/2000/svg" xmlns:xlink="http://www.w3.org/1999/xlink" style="isolation:isolate" viewBox="-4.263256414560601e-14 -3.552713678800501e-15 48.000000000000085 48" width="48.000000000000085" height="48"><linearGradient id="_lgradient_4" x1="49.78571428571428%" y1="100.9642857142861%" x2="50.46428571428567%" y2="-0.10714285714410465%"><stop offset="1.8181818181818181%" stop-opacity="1" style="stop-color:rgb(20,20,34)"/><stop offset="99.54545454545455%" stop-opacity="1" style="stop-color:rgb(41,41,70)"/><stop offset="100%" stop-opacity="1" style="stop-color:rgb(54,54,95)"/></linearGradient><path d=" M -4.263256414560601e-14 24.000000000000004 C -4.263256414560601e-14 10.754039519999997 10.754039519999967 0 23.999999999999996 -3.552713678800501e-15 C 37.24596048000002 -3.552713678800501e-15 48.00000000000004 10.754039519999989 48.00000000000004 23.999999999999993 C 48.00000000000005 37.245960479999994 37.24596048000003 48 24.000000000000007 48 C 10.754039519999981 48.000000000000014 -3.907985046680551e-14 37.24596048000001 -4.263256414560601e-14 24.000000000000004 Z " fill="url(#_lgradient_4)"/><linearGradient id="_lgradient_5" x1="49.78571428571428%" y1="100.9642857142861%" x2="50.46428571428567%" y2="-0.10714285714410465%"><stop offset="0%" stop-opacity="1" style="stop-color:rgb(0,166,97)"/><stop offset="100%" stop-opacity="1" style="stop-color:rgb(55,206,151)"/></linearGradient><path d=" M 42.25788767573588 17.279194428411436 C 42.09716683351989 16.861318318210596 41.615004306871924 16.668452185385384 41.22927526651572 16.82917386055564 C 40.93997726004585 16.957751078070935 40.747112739867745 17.24704997075648 40.747112739867745 17.53634947654656 C 40.747112739867745 17.6327822364069 40.747112739867745 17.72921499626724 40.811400095791974 17.793503911577154 C 41.550716950947695 19.754308471275138 41.96858966926602 21.87583470614338 41.96858966926602 24.125938158526914 C 41.96858966926602 33.222784727921386 35.186170618232325 40.77670346092325 26.37866797431498 41.901755187115015 L 26.37866797431498 33.51208423371147 C 26.925120309292602 33.41565024764206 27.439426513902685 33.25492857247181 27.953732718512768 33.09420689730156 L 27.953732718512768 40.13381676024224 C 35.121883262308096 38.398022177919884 40.48995841135999 31.904867482008942 40.48995841135999 24.125938158526914 C 40.48995841135999 17.922081129092447 37.05053336889998 12.489688630958822 31.971753773912518 9.693131486828333 C 31.586024733556314 9.468121135842125 31.103862206908342 9.628842813407317 30.91099523432481 10.046719160707179 C 30.84670787840059 10.14315218880075 30.84670787840059 10.271729482954113 30.84670787840059 10.40030685374554 C 30.84670787840059 10.689605899707223 31.007428720616577 10.946760488013945 31.232436918756793 11.075337858805375 C 35.82905398709628 13.61474035715059 38.947037345124315 18.5328233721185 38.947037345124315 24.158082003077336 C 38.947037345124315 30.490516250027095 35.02544977601633 35.890765516714836 29.464507654380903 38.07657882757938 L 29.464507654380903 31.84057734048996 C 30.428832707676843 31.551280287118015 31.136005884870457 30.651237925197346 31.136005884870457 29.558330043556 C 31.136005884870457 28.658288907844405 30.6859870361846 27.918969447303056 29.94667018102887 27.501093337102212 C 30.493122516006498 22.100845296623547 32.96822250517057 23.54734037315582 32.96822250517057 21.811545790833463 L 32.96822250517057 20.815071895261525 C 32.96822250517057 18.243524479432953 27.02155134317894 9.853853161998586 24.225009669582885 9.660987148920356 C 24.128576183291116 9.660987148920356 24.064288827366894 9.660987148920356 23.96785534107513 9.660987148920356 C 23.871423080986077 9.660987148920356 23.80713449885914 9.660987148920356 23.710702238770086 9.660987148920356 C 20.914159338971317 9.853853161998586 14.967488176979684 18.243524479432953 14.967488176979684 20.815071895261525 L 14.967488176979684 21.811545790833463 C 14.967488176979684 23.515195302396325 17.410445714384363 22.100845296623547 17.989040501121384 27.501093337102212 C 17.281868550130483 27.918969447303056 16.83185092764734 28.690433978603895 16.83185092764734 29.558330043556 C 16.83185092764734 30.619094080646924 17.539021652435526 31.519133990149456 18.503346705731467 31.84057734048996 L 18.503346705731467 38.07657882757938 C 12.974550101362222 35.890765516714836 9.020817628089409 30.490516250027095 9.020817628089409 24.158082003077336 C 9.020817628089409 18.5328233721185 12.138801599218802 13.61474035715059 16.735417441355573 11.075337858805375 C 17.08900402995238 10.882471879256299 17.249724872168372 10.432451158124366 17.056859125787554 10.046719160707179 C 16.9604268656985 9.757420153064531 16.67113008543135 9.596698477894279 16.38183207896148 9.596698477894279 C 16.253254914707604 9.596698477894279 16.12467897665644 9.628842813407317 15.996101812402564 9.693131486828333 C 10.917323443617821 12.489688630958822 7.477897481505769 17.922081129092447 7.477897481505769 24.125938158526914 C 7.477897481505769 31.904867482008942 12.8459735502097 38.398022177919884 20.078411449929256 40.16596060479266 L 20.078411449929256 33.12635074185198 C 20.592717654539335 33.28707241702223 21.107025085352134 33.44779409219248 21.65347619412704 33.544228078261895 L 21.65347619412704 41.93389903166544 C 12.8459735502097 40.77670346092325 6.063554039349988 33.25492857247181 6.063554039349988 24.125938158526914 C 6.063554039349988 21.9079785506938 6.481428137146359 19.786452928930096 7.220744072650049 17.793503911577154 C 7.381464914866039 17.407771645926733 7.18859978158658 16.957751078070935 6.802869821578339 16.79702940290068 C 6.706437408213949 16.764884945245722 6.610004841574219 16.7327411006953 6.513572428209828 16.7327411006953 C 6.192130743777849 16.7327411006953 5.902833197133998 16.925606620415977 5.774256492706138 17.24704997075648 C 4.938508105519223 19.400720663279678 4.488489754978218 21.71511303097313 4.488489754978218 24.125938158526914 C 4.488489754978218 34.63713595990323 12.781684968082763 43.187528588477036 23.196396034160003 43.60540592488695 L 23.196396034160003 33.737093597982565 C 23.485692814427157 33.76923744253299 24.000000245239953 33.76923744253299 24.000000245239953 33.76923744253299 C 24.000000245239953 33.76923744253299 24.514306449850036 33.76923744253299 24.803604456319906 33.737093597982565 L 24.803604456319906 43.60540592488695 C 35.218314296194436 43.187528588477036 43.51151073550169 34.63713595990323 43.51151073550169 24.125938158526914 C 43.47936705753958 21.71511303097313 43.06149188681583 19.400720663279678 42.25788767573588 17.279194428411436 Z  M 27.600147356118676 28.401134472813812 C 27.889445362588543 28.111834967023732 28.275174402944746 27.918969447303056 28.725193251630607 27.918969447303056 C 29.175212100316465 27.918969447303056 29.560941140672668 28.111834967023732 29.850239147142535 28.401134472813812 C 30.139537153612405 28.690433978603895 30.332401673790507 29.076165018045245 30.332401673790507 29.52618619900558 C 30.332401673790507 29.976207379965913 30.139537153612405 30.361938419407267 29.850239147142535 30.651237925197346 C 29.560941140672668 30.94053743098743 29.175212100316465 31.133402950708106 28.725193251630607 31.133402950708106 C 28.275174402944746 31.133402950708106 27.889445362588543 30.94053743098743 27.600147356118676 30.651237925197346 C 27.310849349648805 30.361938419407267 27.117984829470704 29.976207379965913 27.117984829470704 29.52618619900558 C 27.117984829470704 29.076165018045245 27.310849349648805 28.690433978603895 27.600147356118676 28.401134472813812 Z  M 20.399853134361233 30.651237925197346 C 20.110555127891367 30.94053743098743 19.724826087535163 31.133402950708106 19.274807238849306 31.133402950708106 C 18.824788390163448 31.133402950708106 18.43905934980724 30.94053743098743 18.149761343337374 30.651237925197346 C 17.828319658905393 30.361938419407267 17.667598816689406 29.976207379965913 17.667598816689406 29.52618619900558 C 17.667598816689406 29.076165018045245 17.860463336867504 28.690433978603895 18.149761343337374 28.401134472813812 C 18.43905934980724 28.111834967023732 18.824788390163448 27.918969447303056 19.274807238849306 27.918969447303056 C 19.724826087535163 27.918969447303056 20.110555127891367 28.111834967023732 20.399853134361233 28.401134472813812 C 20.689151140831104 28.690433978603895 20.882015661009206 29.076165018045245 20.882015661009206 29.52618619900558 C 20.84987198304709 29.976207379965913 20.689151140831104 30.361938419407267 20.399853134361233 30.651237925197346 Z " fill-rule="evenodd" fill="url(#_lgradient_5)"/></svg>