<?xml version="1.0" standalone="no"?><!-- Generator: Gravit.io --><svg xmlns="http://www.w3.org/2000/svg" xmlns:xlink="http://www.w3.org/1999/xlink" style="isolation:isolate" viewBox="917 413.998 48 48" width="48" height="48"><g id="particl"><linearGradient id="_lgradient_1" x1="47.798838207777194%" y1="3.271279180419029%" x2="48.25959375892985%" y2="98.29532856149126%"><stop offset="0%" stop-opacity="1" style="stop-color:rgb(64,68,71)"/><stop offset="100%" stop-opacity="1" style="stop-color:rgb(27,28,30)"/></linearGradient><path d=" M 917.144 435.392 C 918.581 422.226 930.439 412.703 943.605 414.141 C 956.772 415.579 966.294 427.436 964.856 440.603 C 963.419 453.769 951.561 463.292 938.395 461.854 C 925.228 460.416 915.706 448.559 917.144 435.392 Z " fill="url(#_lgradient_1)"/><linearGradient id="_lgradient_2" x1="88.08246011992154%" y1="105.80914419719356%" x2="111.7684998160346%" y2="16.25504577388419%"><stop offset="0%" stop-opacity="1" style="stop-color:rgb(6,185,143)"/><stop offset="98.26086956521739%" stop-opacity="1" style="stop-color:rgb(3,236,181)"/></linearGradient><path d=" M 929.43 444.803 C 929.43 445.474 928.887 446.017 928.216 446.017 C 927.545 446.017 927.001 445.474 927.001 444.803 C 927.001 444.132 927.545 443.588 928.216 443.588 C 928.887 443.588 929.43 444.132 929.43 444.803 Z  M 932.754 441.273 C 932.754 441.944 932.21 442.488 931.539 442.488 C 930.869 442.488 930.325 441.944 930.325 441.273 C 930.325 440.602 930.869 440.059 931.539 440.059 C 932.21 440.059 932.754 440.602 932.754 441.273 Z  M 935.716 450.785 C 935.716 451.456 935.172 452 934.501 452 C 933.831 452 933.287 451.456 933.287 450.785 C 933.287 450.115 933.831 449.571 934.501 449.571 C 935.172 449.571 935.716 450.115 935.716 450.785 Z  M 949.016 450.785 C 949.016 451.456 948.472 452 947.801 452 C 947.13 452 946.587 451.456 946.587 450.785 C 946.587 450.115 947.13 449.571 947.801 449.571 C 948.472 449.571 949.016 450.115 949.016 450.785 Z  M 945.522 447.463 C 945.522 448.134 944.978 448.678 944.307 448.678 C 943.636 448.678 943.093 448.134 943.093 447.463 C 943.093 446.793 943.636 446.249 944.307 446.249 C 944.978 446.249 945.522 446.793 945.522 447.463 Z  M 954.993 444.502 C 954.993 445.173 954.449 445.716 953.778 445.716 C 953.108 445.716 952.564 445.173 952.564 444.502 C 952.564 443.831 953.108 443.287 953.778 443.287 C 954.449 443.287 954.993 443.831 954.993 444.502 Z  M 951.679 434.693 C 951.679 435.364 951.136 435.908 950.465 435.908 C 949.794 435.908 949.251 435.364 949.251 434.693 C 949.251 434.023 949.794 433.479 950.465 433.479 C 951.136 433.479 951.679 434.023 951.679 434.693 Z  M 954.999 431.204 C 954.999 431.874 954.455 432.418 953.784 432.418 C 953.114 432.418 952.57 431.874 952.57 431.204 C 952.57 430.533 953.114 429.989 953.784 429.989 C 954.455 429.989 954.999 430.533 954.999 431.204 Z  M 948.709 425.214 C 948.709 425.885 948.165 426.429 947.495 426.429 C 946.824 426.429 946.28 425.885 946.28 425.214 C 946.28 424.544 946.824 424 947.495 424 C 948.165 424 948.709 424.544 948.709 425.214 Z  M 929.43 431.508 C 929.43 432.179 928.887 432.723 928.216 432.723 C 927.545 432.723 927.001 432.179 927.001 431.508 C 927.001 430.838 927.545 430.294 928.216 430.294 C 928.887 430.294 929.43 430.838 929.43 431.508 Z  M 938.913 428.541 C 938.913 429.212 938.369 429.756 937.698 429.756 C 937.027 429.756 936.484 429.212 936.484 428.541 C 936.484 427.87 937.027 427.327 937.698 427.327 C 938.369 427.327 938.913 427.87 938.913 428.541 Z  M 935.373 425.311 C 935.373 425.982 934.829 426.525 934.158 426.525 C 933.487 426.525 932.944 425.982 932.944 425.311 C 932.944 424.64 933.487 424.096 934.158 424.096 C 934.829 424.096 935.373 424.64 935.373 425.311 Z  M 937.264 446.181 C 937.852 445.862 938.543 446.164 938.965 446.612 C 940.032 447.67 941.098 448.728 942.205 449.743 C 942.933 450.435 942.44 451.84 941.414 451.85 C 940.586 451.948 940.155 451.126 939.598 450.676 C 938.632 449.875 937.735 448.993 936.869 448.086 C 936.346 447.527 936.559 446.489 937.264 446.181 Z  M 946.782 443.177 C 947.177 443.041 947.679 443.031 948.012 443.315 C 949.248 444.49 950.563 445.582 951.725 446.835 C 952.084 447.198 952.116 447.808 951.878 448.245 C 951.542 449.031 950.391 449.051 949.832 448.494 C 948.705 447.43 947.621 446.313 946.487 445.253 C 945.801 444.719 945.962 443.485 946.782 443.177 Z  M 934.097 443.209 C 934.81 442.782 935.894 443.29 935.911 444.156 C 936.042 444.993 935.216 445.437 934.764 445.996 C 933.965 446.963 933.075 447.848 932.176 448.723 C 931.592 449.314 930.347 449.029 930.182 448.182 C 929.899 447.364 930.594 446.703 931.123 446.189 C 932.149 445.229 933.041 444.131 934.097 443.209 Z  M 952.974 436.622 C 953.709 436.142 954.818 436.688 954.841 437.574 C 954.949 438.406 954.123 438.846 953.669 439.405 C 952.868 440.369 951.989 441.268 951.081 442.132 C 950.419 442.759 949.18 442.319 949.061 441.412 C 948.906 440.475 949.786 439.893 950.34 439.294 C 951.258 438.442 952.033 437.438 952.974 436.622 Z  M 931.31 433.644 C 932.378 433.232 933.421 434.579 932.754 435.507 C 931.966 436.535 930.94 437.361 930.08 438.332 C 929.572 438.855 929.099 439.658 928.253 439.556 C 927.263 439.517 926.766 438.141 927.486 437.474 C 928.786 436.229 929.819 434.655 931.31 433.644 Z  M 930.488 427.316 C 931.125 426.932 931.913 427.187 932.385 427.709 C 933.445 428.78 934.538 429.814 935.611 430.868 C 936.321 431.524 935.826 432.913 934.836 432.918 C 934.007 433.045 933.568 432.225 933.013 431.777 C 932.04 430.972 931.15 430.075 930.269 429.173 C 929.77 428.659 929.918 427.716 930.488 427.316 Z  M 950.041 427.114 C 950.652 426.785 951.632 427.053 951.802 427.781 C 952.061 428.429 951.644 429.071 951.188 429.502 C 950.187 430.49 949.214 431.505 948.241 432.52 C 947.887 432.949 947.262 433.064 946.761 432.833 C 946.037 432.533 945.841 431.446 946.387 430.895 C 947.615 429.646 948.698 428.246 950.041 427.114 Z  M 940.193 424.243 C 941.096 423.85 941.739 424.682 942.296 425.239 C 943.29 426.082 944.235 426.983 945.132 427.928 C 945.646 428.489 945.438 429.515 944.739 429.827 C 944.201 430.12 943.545 429.899 943.133 429.491 C 942.052 428.455 941.017 427.367 939.893 426.377 C 939.197 425.808 939.339 424.572 940.193 424.243 Z " fill-rule="evenodd" fill="url(#_lgradient_2)"/></g></svg>