<?xml version="1.0" standalone="no"?><!-- Generator: Gravit.io --><svg xmlns="http://www.w3.org/2000/svg" xmlns:xlink="http://www.w3.org/1999/xlink" style="isolation:isolate" viewBox="1071 413.998 48 48" width="48" height="48"><g id="quod-libet"><linearGradient id="_lgradient_6" x1="53.635714285714286%" y1="97.49999999999999%" x2="53.6357142857143%" y2="0%"><stop offset="2.1739130434782608%" stop-opacity="1" style="stop-color:rgb(234,234,234)"/><stop offset="100%" stop-opacity="1" style="stop-color:rgb(255,255,255)"/></linearGradient><path d=" M 1071 437.997 C 1071 424.751 1081.754 413.998 1095 413.998 C 1108.246 413.998 1119 424.751 1119 437.997 C 1119 451.243 1108.246 461.997 1095 461.997 C 1081.754 461.997 1071 451.243 1071 437.997 Z " fill="url(#_lgradient_6)"/><path d=" M 1107.737 445.793 C 1107.609 445.632 1107.388 445.585 1107.206 445.68 L 1101.173 448.802 L 1101.286 433.268 C 1101.287 433.21 1101.275 433.154 1101.254 433.101 C 1101.126 430.85 1098.646 428.753 1095.399 428.186 C 1091.759 427.55 1088.446 429.048 1088.014 431.521 C 1087.581 433.998 1090.19 436.525 1093.831 437.161 C 1095.326 437.422 1096.805 437.337 1098.067 436.925 L 1098.098 456.435 C 1098.098 456.612 1098.209 456.775 1098.38 456.837 C 1098.543 456.897 1098.735 456.85 1098.851 456.713 L 1107.729 446.326 C 1107.863 446.168 1107.867 445.942 1107.739 445.781" fill="rgb(0,0,0)" fill-opacity="0.846"/></g></svg>