<?xml version="1.0" standalone="no"?><!-- Generator: Gravit.io --><svg xmlns="http://www.w3.org/2000/svg" xmlns:xlink="http://www.w3.org/1999/xlink" style="isolation:isolate" viewBox="995 413.998 48 48" width="48" height="48"><g id="sublime-text-logo"><linearGradient id="_lgradient_3" x1="47.798838207777194%" y1="3.271279180419029%" x2="48.25959375892985%" y2="98.29532856149126%"><stop offset="1.7391304347826086%" stop-opacity="1" style="stop-color:rgb(69,73,77)"/><stop offset="100%" stop-opacity="1" style="stop-color:rgb(23,24,25)"/></linearGradient><path d=" M 995.144 435.392 C 996.581 422.226 1008.439 412.703 1021.605 414.141 C 1034.772 415.579 1044.294 427.436 1042.856 440.603 C 1041.419 453.769 1029.561 463.292 1016.395 461.854 C 1003.228 460.416 993.706 448.559 995.144 435.392 Z " fill="url(#_lgradient_3)"/><g id="Group"><linearGradient id="_lgradient_4" x1="55.11709959716629%" y1="69.54164578569497%" x2="63.680177802472585%" y2="26.578406554935945%"><stop offset="0%" stop-opacity="1" style="stop-color:rgb(255,151,0)"/><stop offset="53%" stop-opacity="1" style="stop-color:rgb(244,142,0)"/><stop offset="100%" stop-opacity="1" style="stop-color:rgb(206,110,0)"/></linearGradient><path d=" M 1028.712 438.692 C 1028.712 438.397 1028.493 438.226 1028.225 438.311 L 1009.772 444.162 C 1009.503 444.248 1009.285 444.557 1009.285 444.852 L 1009.285 450.832 C 1009.285 451.128 1009.503 451.299 1009.772 451.214 L 1028.225 445.363 C 1028.493 445.278 1028.712 444.969 1028.712 444.673 L 1028.712 438.692 Z " fill-rule="evenodd" fill="url(#_lgradient_4)"/><linearGradient id="_lgradient_5" x1="70.93750000000016%" y1="-8.619863017661455%" x2="45.00000000000027%" y2="82.1387092278602%"><stop offset="0%" stop-opacity="1" style="stop-color:rgb(255,181,69)"/><stop offset="100%" stop-opacity="1" style="stop-color:rgb(255,152,0)"/></linearGradient><path d=" M 1020.47 435.533 L 1028.228 437.992 C 1028.497 438.078 1028.715 438.387 1028.715 438.682 L 1028.715 444.663 C 1028.715 444.958 1028.497 445.129 1028.228 445.044 L 1009.772 439.192 C 1009.59 439.134 1009.431 438.974 1009.351 438.78 C 1009.308 438.721 1009.285 438.639 1009.285 438.543 L 1009.285 438.502 L 1009.285 432.563 L 1009.285 432.522 C 1009.285 432.426 1009.308 432.344 1009.351 432.286 C 1009.431 432.091 1009.59 431.931 1009.772 431.873 L 1028.225 426.022 C 1028.493 425.937 1028.712 426.108 1028.712 426.403 L 1028.712 432.384 C 1028.712 432.679 1028.493 432.988 1028.225 433.074 L 1020.47 435.533 Z " fill="url(#_lgradient_5)"/></g></g></svg>