<?xml version="1.0" standalone="no"?><!-- Generator: Gravit.io --><svg xmlns="http://www.w3.org/2000/svg" xmlns:xlink="http://www.w3.org/1999/xlink" style="isolation:isolate" viewBox="841 492 48 48" width="48" height="48"><g id="wire"><linearGradient id="_lgradient_7" x1="53.635714285714286%" y1="97.49999999999999%" x2="53.6357142857143%" y2="0%"><stop offset="2.1739130434782608%" stop-opacity="1" style="stop-color:rgb(234,234,234)"/><stop offset="100%" stop-opacity="1" style="stop-color:rgb(255,255,255)"/></linearGradient><path d=" M 841 516 C 841 502.754 851.754 492 865 492 C 878.246 492 889 502.754 889 516 C 889 529.246 878.246 540 865 540 C 851.754 540 841 529.246 841 516 Z " fill="url(#_lgradient_7)"/><path d=" M 865 522.804 C 864.194 521.848 863.706 520.616 863.706 519.271 L 863.708 510.527 C 863.708 509.814 864.288 509.234 865.002 509.234 C 865.716 509.234 866.296 509.814 866.296 510.527 L 866.294 519.271 C 866.294 520.616 865.806 521.848 865 522.804 Z  M 874.706 519.271 C 874.706 522.301 872.266 524.766 869.233 524.766 C 868.011 524.766 866.872 524.361 865.958 523.685 C 866.98 522.497 867.588 520.956 867.588 519.271 L 867.59 510.527 C 867.59 509.101 866.429 507.941 865.002 507.941 C 863.575 507.941 862.414 509.101 862.414 510.527 L 862.412 519.271 C 862.412 520.956 863.061 522.497 864.083 523.685 C 863.169 524.361 862.029 524.766 860.807 524.766 C 857.775 524.766 855.294 522.301 855.294 519.271 L 855.294 508.604 L 854 508.604 L 854 519.271 C 854 523.014 857.075 526.059 860.821 526.059 C 862.409 526.059 863.882 525.507 865.041 524.591 C 866.199 525.507 867.638 526.059 869.226 526.059 C 872.973 526.059 876 523.014 876 519.271 L 876 508.604 L 874.706 508.604 L 874.706 519.271 Z " fill="rgb(0,0,0)" vector-effect="non-scaling-stroke" stroke-width="1.5" stroke="rgb(0,0,0)" stroke-linejoin="round" stroke-linecap="square" stroke-miterlimit="3"/></g></svg>